<svg id="svg" version="1.1" xmlns="http://www.w3.org/2000/svg" xmlns:xlink="http://www.w3.org/1999/xlink" width="400" height="74.07407407407408" viewBox="0, 0, 400,74.07407407407408"><g id="svgg"><path id="path0" d="M23.333 12.500 C 23.333 12.592,23.123 12.667,22.867 12.667 C 22.360 12.667,21.503 13.007,21.501 13.208 C 21.501 13.277,21.350 13.333,21.167 13.333 C 20.983 13.333,20.833 13.408,20.833 13.500 C 20.833 13.592,20.700 13.667,20.537 13.667 C 20.374 13.667,20.132 13.817,20.000 14.000 C 19.868 14.183,19.626 14.333,19.463 14.333 C 19.300 14.333,19.167 14.408,19.167 14.500 C 19.167 14.592,19.017 14.667,18.833 14.667 C 18.650 14.667,18.500 14.742,18.500 14.833 C 18.500 14.925,18.387 15.000,18.250 15.000 C 18.112 15.000,18.000 15.066,18.000 15.147 C 18.000 15.228,17.589 15.495,17.087 15.741 C 16.584 15.987,16.130 16.258,16.077 16.344 C 16.024 16.430,15.841 16.500,15.671 16.500 C 15.500 16.500,15.336 16.569,15.306 16.654 C 15.275 16.739,15.137 16.833,15.000 16.862 C 14.862 16.892,14.629 17.048,14.480 17.208 C 14.332 17.369,14.088 17.500,13.939 17.500 C 13.789 17.500,13.667 17.575,13.667 17.667 C 13.667 17.758,13.517 17.833,13.333 17.833 C 13.150 17.833,13.000 17.908,13.000 18.000 C 13.000 18.092,12.888 18.167,12.751 18.167 C 12.615 18.167,12.409 18.317,12.295 18.500 C 12.180 18.683,11.955 18.833,11.793 18.833 C 11.632 18.833,11.500 18.908,11.500 19.000 C 11.500 19.092,11.350 19.167,11.167 19.167 C 10.983 19.167,10.833 19.242,10.833 19.333 C 10.833 19.425,10.700 19.500,10.537 19.500 C 10.374 19.500,10.132 19.650,10.000 19.833 C 9.868 20.017,9.626 20.167,9.463 20.167 C 9.300 20.167,9.167 20.242,9.167 20.333 C 9.167 20.560,9.602 20.543,9.988 20.302 C 10.607 19.915,12.489 20.735,16.758 23.252 C 18.149 24.071,19.054 24.421,19.137 24.172 C 19.169 24.077,19.338 24.000,19.514 24.000 C 19.690 24.000,19.833 23.925,19.833 23.833 C 19.833 23.742,19.932 23.667,20.052 23.667 C 20.172 23.667,20.431 23.517,20.628 23.333 C 20.825 23.150,21.064 23.000,21.160 23.000 C 21.255 23.000,21.333 22.925,21.333 22.833 C 21.333 22.742,21.483 22.667,21.667 22.667 C 21.850 22.667,22.000 22.592,22.000 22.500 C 22.000 22.408,22.133 22.333,22.297 22.333 C 22.460 22.333,22.701 22.183,22.833 22.000 C 22.965 21.817,23.201 21.667,23.356 21.667 C 23.512 21.667,23.664 21.608,23.694 21.536 C 23.725 21.464,24.263 21.151,24.891 20.842 C 25.518 20.532,26.070 20.179,26.117 20.056 C 26.164 19.934,26.312 19.833,26.446 19.833 C 26.768 19.833,27.167 19.425,27.167 19.095 C 27.167 18.951,27.242 18.833,27.333 18.833 C 27.425 18.833,27.500 18.683,27.500 18.500 C 27.500 18.317,27.575 18.167,27.667 18.167 C 27.766 18.167,27.833 17.528,27.833 16.583 C 27.833 15.639,27.766 15.000,27.667 15.000 C 27.575 15.000,27.500 14.850,27.500 14.667 C 27.500 14.483,27.425 14.333,27.333 14.333 C 27.242 14.333,27.167 14.183,27.167 14.000 C 27.167 13.806,27.056 13.667,26.900 13.667 C 26.754 13.667,26.424 13.442,26.167 13.167 C 25.846 12.823,25.541 12.667,25.193 12.667 C 24.914 12.667,24.640 12.592,24.583 12.500 C 24.527 12.408,24.222 12.333,23.907 12.333 C 23.591 12.333,23.333 12.408,23.333 12.500 M42.167 24.300 C 41.938 24.337,41.712 24.416,41.667 24.475 C 41.553 24.623,40.779 25.075,39.583 25.692 C 39.033 25.976,38.558 26.274,38.528 26.354 C 38.497 26.434,38.328 26.500,38.153 26.500 C 37.977 26.500,37.833 26.575,37.833 26.667 C 37.833 26.758,37.683 26.833,37.500 26.833 C 37.317 26.833,37.167 26.908,37.167 27.000 C 37.167 27.092,37.068 27.167,36.948 27.167 C 36.828 27.167,36.569 27.317,36.372 27.500 C 36.175 27.683,35.936 27.833,35.840 27.833 C 35.745 27.833,35.667 27.908,35.667 28.000 C 35.667 28.092,35.552 28.167,35.412 28.167 C 35.082 28.167,33.667 29.582,33.667 29.912 C 33.667 30.052,33.592 30.167,33.500 30.167 C 33.408 30.167,33.333 30.354,33.333 30.583 C 33.333 30.813,33.258 31.000,33.167 31.000 C 33.074 31.000,33.000 31.444,33.000 32.000 C 33.000 32.556,33.074 33.000,33.167 33.000 C 33.258 33.000,33.333 33.151,33.333 33.336 C 33.333 33.968,34.256 35.167,34.742 35.167 C 34.884 35.167,35.000 35.242,35.000 35.333 C 35.000 35.425,35.150 35.500,35.333 35.500 C 35.517 35.500,35.667 35.575,35.667 35.667 C 35.667 35.766,36.306 35.833,37.250 35.833 C 38.194 35.833,38.833 35.766,38.833 35.667 C 38.833 35.575,38.983 35.500,39.167 35.500 C 39.350 35.500,39.500 35.425,39.500 35.333 C 39.500 35.242,39.650 35.167,39.833 35.167 C 40.017 35.167,40.167 35.110,40.167 35.042 C 40.168 34.973,40.505 34.778,40.917 34.608 C 41.329 34.439,41.667 34.233,41.667 34.150 C 41.667 34.068,41.817 34.000,42.000 34.000 C 42.183 34.000,42.333 33.925,42.333 33.833 C 42.333 33.742,42.432 33.667,42.552 33.667 C 42.672 33.667,42.931 33.517,43.128 33.333 C 43.325 33.150,43.602 33.000,43.743 33.000 C 43.884 33.000,44.000 32.943,44.000 32.874 C 44.000 32.805,44.244 32.642,44.542 32.512 C 44.840 32.382,45.205 32.138,45.353 31.971 C 45.501 31.804,45.745 31.667,45.895 31.667 C 46.044 31.667,46.167 31.592,46.167 31.500 C 46.167 31.408,46.317 31.333,46.500 31.333 C 46.683 31.333,46.833 31.258,46.833 31.167 C 46.833 31.075,46.946 31.000,47.083 31.000 C 47.221 31.000,47.333 30.925,47.333 30.833 C 47.333 30.742,47.446 30.667,47.583 30.667 C 47.721 30.667,47.833 30.592,47.833 30.500 C 47.833 30.408,47.983 30.333,48.167 30.333 C 48.350 30.333,48.501 30.277,48.502 30.208 C 48.502 30.140,48.840 29.935,49.252 29.754 C 49.663 29.573,50.000 29.367,50.000 29.296 C 50.000 29.225,50.150 29.167,50.333 29.167 C 50.517 29.167,50.667 29.101,50.667 29.020 C 50.667 28.940,50.892 28.781,51.167 28.667 C 52.041 28.305,51.796 28.001,50.625 27.995 C 49.442 27.989,49.111 27.844,45.540 25.773 C 43.070 24.340,42.762 24.205,42.167 24.300 M51.833 28.000 C 51.833 28.092,51.946 28.167,52.083 28.167 C 52.221 28.167,52.333 28.092,52.333 28.000 C 52.333 27.908,52.221 27.833,52.083 27.833 C 51.946 27.833,51.833 27.908,51.833 28.000 " stroke="none" fill="#f27f1c" fill-rule="evenodd"></path><path id="path1" d="M8.677 20.828 C 7.888 20.955,7.000 21.771,7.000 22.369 C 7.000 22.533,6.925 22.667,6.833 22.667 C 6.734 22.667,6.667 23.306,6.667 24.250 C 6.667 25.194,6.734 25.833,6.833 25.833 C 6.925 25.833,7.000 25.942,7.000 26.075 C 7.000 26.463,7.370 27.167,7.573 27.167 C 7.676 27.167,7.868 27.317,8.000 27.500 C 8.132 27.683,8.339 27.833,8.460 27.833 C 8.582 27.833,8.842 27.983,9.038 28.167 C 9.235 28.350,9.495 28.500,9.615 28.500 C 9.735 28.500,9.833 28.575,9.833 28.667 C 9.833 28.758,9.983 28.833,10.167 28.833 C 10.350 28.833,10.500 28.893,10.500 28.965 C 10.500 29.117,12.186 30.000,12.475 30.000 C 12.580 30.000,12.667 30.075,12.667 30.167 C 12.667 30.258,12.800 30.333,12.963 30.333 C 13.126 30.333,13.368 30.483,13.500 30.667 C 13.632 30.850,13.874 31.000,14.037 31.000 C 14.200 31.000,14.333 31.075,14.333 31.167 C 14.333 31.258,14.432 31.333,14.552 31.333 C 14.672 31.333,14.931 31.483,15.128 31.667 C 15.325 31.850,15.602 32.000,15.743 32.000 C 15.884 32.000,16.000 32.075,16.000 32.167 C 16.000 32.258,16.116 32.333,16.257 32.333 C 16.398 32.333,16.675 32.483,16.872 32.667 C 17.068 32.850,17.440 33.093,17.698 33.207 C 17.956 33.321,18.167 33.471,18.167 33.541 C 18.167 33.610,18.310 33.667,18.486 33.667 C 18.662 33.667,18.831 33.732,18.861 33.812 C 18.928 33.987,20.575 34.833,20.850 34.833 C 20.957 34.833,21.166 34.965,21.316 35.125 C 21.851 35.701,22.322 35.833,23.833 35.833 C 25.447 35.833,25.695 35.749,26.646 34.875 C 26.971 34.577,27.295 34.333,27.368 34.333 C 27.441 34.333,27.500 34.183,27.500 34.000 C 27.500 33.817,27.575 33.667,27.667 33.667 C 28.024 33.667,27.870 30.267,27.500 30.000 C 27.317 29.868,27.167 29.660,27.167 29.539 C 27.167 29.322,26.442 28.500,26.251 28.500 C 26.197 28.500,25.992 28.350,25.795 28.167 C 25.598 27.983,25.339 27.833,25.219 27.833 C 25.098 27.833,25.000 27.758,25.000 27.667 C 25.000 27.575,24.850 27.500,24.667 27.500 C 24.483 27.500,24.333 27.425,24.333 27.333 C 24.333 27.242,24.200 27.167,24.037 27.167 C 23.874 27.167,23.632 27.017,23.500 26.833 C 23.368 26.650,23.126 26.500,22.963 26.500 C 22.800 26.500,22.667 26.425,22.667 26.333 C 22.667 26.242,22.517 26.167,22.333 26.167 C 22.150 26.167,22.000 26.099,22.000 26.017 C 22.000 25.934,21.663 25.728,21.251 25.558 C 20.838 25.389,20.501 25.194,20.501 25.125 C 20.500 25.056,20.350 25.000,20.167 25.000 C 19.983 25.000,19.833 24.925,19.833 24.833 C 19.833 24.742,19.683 24.667,19.500 24.667 C 19.317 24.667,19.167 24.592,19.167 24.500 C 19.167 24.408,18.960 24.333,18.708 24.333 C 18.159 24.332,17.604 24.058,14.333 22.171 C 11.718 20.662,11.727 20.665,10.536 20.688 C 9.920 20.699,9.084 20.762,8.677 20.828 " stroke="none" fill="#4484f4" fill-rule="evenodd"></path><path id="path2" d="M36.667 12.500 C 36.529 12.589,36.173 12.663,35.875 12.664 C 35.577 12.666,35.333 12.742,35.333 12.833 C 35.333 12.925,35.218 13.000,35.078 13.000 C 34.937 13.000,34.562 13.260,34.244 13.578 C 33.927 13.896,33.667 14.271,33.667 14.411 C 33.667 14.552,33.592 14.667,33.500 14.667 C 33.408 14.667,33.333 14.817,33.333 15.000 C 33.333 15.183,33.258 15.333,33.167 15.333 C 33.070 15.333,33.000 15.861,33.000 16.583 C 33.000 17.306,33.070 17.833,33.167 17.833 C 33.258 17.833,33.333 17.947,33.333 18.086 C 33.333 18.651,34.632 20.167,35.116 20.167 C 35.235 20.167,35.333 20.230,35.333 20.308 C 35.333 20.386,35.671 20.589,36.083 20.759 C 36.496 20.929,36.833 21.128,36.833 21.201 C 36.833 21.274,36.932 21.333,37.052 21.333 C 37.172 21.333,37.431 21.483,37.628 21.667 C 37.825 21.850,38.102 22.000,38.243 22.000 C 38.384 22.000,38.500 22.075,38.500 22.167 C 38.500 22.258,38.650 22.333,38.833 22.333 C 39.017 22.333,39.167 22.408,39.167 22.500 C 39.167 22.592,39.300 22.667,39.463 22.667 C 39.626 22.667,39.868 22.817,40.000 23.000 C 40.132 23.183,40.374 23.333,40.537 23.333 C 40.700 23.333,40.833 23.408,40.833 23.500 C 40.833 23.592,40.946 23.667,41.083 23.667 C 41.221 23.667,41.333 23.733,41.333 23.814 C 41.333 23.988,41.898 24.196,42.539 24.259 C 42.790 24.284,44.065 24.922,45.373 25.678 C 49.080 27.820,49.271 27.904,50.625 27.999 C 51.290 28.045,51.833 28.027,51.833 27.958 C 51.833 27.890,52.021 27.833,52.250 27.833 C 52.479 27.833,52.667 27.758,52.667 27.667 C 52.667 27.575,52.789 27.500,52.939 27.500 C 53.647 27.500,54.562 25.682,54.574 24.250 C 54.586 22.811,53.485 20.833,52.671 20.833 C 52.526 20.833,52.299 20.683,52.167 20.500 C 52.035 20.317,51.793 20.167,51.630 20.167 C 51.467 20.167,51.333 20.092,51.333 20.000 C 51.333 19.908,51.183 19.833,51.000 19.833 C 50.817 19.833,50.667 19.758,50.667 19.667 C 50.667 19.575,50.533 19.500,50.370 19.500 C 50.207 19.500,49.965 19.350,49.833 19.167 C 49.701 18.983,49.497 18.833,49.380 18.833 C 49.263 18.833,49.167 18.758,49.167 18.667 C 49.167 18.575,49.051 18.500,48.910 18.500 C 48.768 18.500,48.492 18.350,48.295 18.167 C 48.098 17.983,47.839 17.833,47.719 17.833 C 47.598 17.833,47.500 17.758,47.500 17.667 C 47.500 17.575,47.350 17.500,47.167 17.500 C 46.983 17.500,46.833 17.444,46.832 17.375 C 46.831 17.306,46.663 17.171,46.457 17.074 C 45.323 16.540,43.667 15.588,43.667 15.470 C 43.667 15.395,43.517 15.333,43.333 15.333 C 43.150 15.333,43.000 15.258,43.000 15.167 C 43.000 15.075,42.902 15.000,42.781 15.000 C 42.661 15.000,42.402 14.850,42.205 14.667 C 42.008 14.483,41.732 14.333,41.590 14.333 C 41.449 14.333,41.333 14.258,41.333 14.167 C 41.333 14.075,41.183 14.000,41.000 14.000 C 40.817 14.000,40.667 13.925,40.667 13.833 C 40.667 13.742,40.554 13.667,40.417 13.667 C 40.279 13.667,40.167 13.606,40.167 13.531 C 40.167 13.297,38.825 12.667,38.327 12.667 C 38.066 12.667,37.807 12.592,37.750 12.500 C 37.619 12.289,36.994 12.289,36.667 12.500 " stroke="none" fill="#0c9c5b" fill-rule="evenodd"></path><path id="path3" d="M9.917 20.333 C 9.860 20.425,9.518 20.500,9.157 20.500 C 8.796 20.500,8.500 20.569,8.500 20.653 C 8.500 20.742,9.149 20.768,10.042 20.716 C 11.742 20.615,11.486 20.528,14.333 22.171 C 17.498 23.996,18.167 24.335,18.583 24.320 C 18.831 24.311,18.786 24.258,18.412 24.112 C 18.134 24.005,17.234 23.530,16.412 23.058 C 15.589 22.585,14.579 22.006,14.167 21.770 C 11.944 20.498,10.183 19.903,9.917 20.333 " stroke="none" fill="#9c6494" fill-rule="evenodd"></path><path id="path4" d="M208.917 12.833 C 208.860 12.925,208.556 13.000,208.240 13.000 C 207.925 13.000,207.667 13.075,207.667 13.167 C 207.667 13.258,207.517 13.333,207.333 13.333 C 207.150 13.333,207.000 13.408,207.000 13.500 C 207.000 13.592,206.867 13.667,206.703 13.667 C 206.540 13.667,206.299 13.817,206.167 14.000 C 206.035 14.183,205.845 14.333,205.744 14.333 C 205.522 14.333,204.667 15.205,204.667 15.431 C 204.667 15.520,204.517 15.701,204.333 15.833 C 204.150 15.965,204.000 16.203,204.000 16.360 C 204.000 16.518,203.925 16.693,203.833 16.750 C 203.742 16.807,203.667 17.112,203.667 17.429 C 203.667 17.745,203.576 18.150,203.464 18.329 C 203.305 18.583,203.305 18.774,203.464 19.213 C 203.576 19.522,203.667 20.050,203.667 20.387 C 203.667 20.724,203.732 21.000,203.813 21.000 C 203.893 21.000,204.001 21.212,204.053 21.472 C 204.105 21.731,204.358 22.174,204.615 22.455 C 204.873 22.736,205.209 23.105,205.363 23.275 C 205.777 23.731,206.104 23.979,206.577 24.194 C 206.810 24.300,207.000 24.450,207.000 24.527 C 207.000 24.604,207.114 24.667,207.252 24.667 C 207.391 24.667,207.635 24.733,207.794 24.813 C 208.621 25.231,209.389 25.500,209.756 25.500 C 209.982 25.500,210.167 25.575,210.167 25.667 C 210.167 25.758,210.392 25.833,210.667 25.833 C 210.942 25.833,211.167 25.908,211.167 26.000 C 211.167 26.092,211.317 26.167,211.500 26.167 C 211.683 26.167,211.833 26.242,211.833 26.333 C 211.833 26.425,211.983 26.500,212.167 26.500 C 212.350 26.500,212.500 26.575,212.500 26.667 C 212.500 26.758,212.585 26.833,212.689 26.833 C 212.915 26.833,214.164 28.097,214.458 28.623 C 214.706 29.066,214.738 30.500,214.500 30.500 C 214.408 30.500,214.333 30.582,214.333 30.683 C 214.333 30.976,213.314 31.884,212.526 32.292 C 211.766 32.685,209.833 32.835,209.833 32.500 C 209.833 32.408,209.683 32.333,209.500 32.333 C 209.317 32.333,209.167 32.258,209.167 32.167 C 209.167 32.075,209.041 32.000,208.888 32.000 C 208.550 32.000,206.887 30.277,206.741 29.775 C 206.420 28.671,206.271 28.500,205.626 28.500 C 205.282 28.500,205.000 28.575,205.000 28.667 C 205.000 28.758,204.817 28.833,204.593 28.833 C 204.369 28.833,204.140 28.908,204.083 29.000 C 204.027 29.092,203.835 29.167,203.657 29.167 C 203.479 29.167,203.333 29.242,203.333 29.333 C 203.333 29.425,203.183 29.500,203.000 29.500 C 202.489 29.500,202.713 30.724,203.470 32.068 C 204.097 33.182,205.215 34.411,205.835 34.667 C 206.109 34.781,206.333 34.940,206.333 35.020 C 206.333 35.101,206.483 35.167,206.667 35.167 C 206.850 35.167,207.000 35.242,207.000 35.333 C 207.000 35.425,207.150 35.500,207.333 35.500 C 207.517 35.500,207.667 35.575,207.667 35.667 C 207.667 35.758,207.929 35.833,208.250 35.833 C 208.571 35.833,208.833 35.908,208.833 36.000 C 208.833 36.101,209.583 36.167,210.750 36.167 C 211.917 36.167,212.667 36.101,212.667 36.000 C 212.667 35.908,212.967 35.833,213.333 35.833 C 213.700 35.833,214.000 35.758,214.000 35.667 C 214.000 35.575,214.150 35.500,214.333 35.500 C 214.517 35.500,214.667 35.425,214.667 35.333 C 214.667 35.242,214.817 35.167,215.000 35.167 C 215.183 35.167,215.333 35.092,215.333 35.000 C 215.333 34.908,215.439 34.833,215.568 34.833 C 215.895 34.833,217.500 33.254,217.500 32.932 C 217.500 32.786,217.575 32.667,217.667 32.667 C 217.758 32.667,217.833 32.517,217.833 32.333 C 217.833 32.150,217.908 32.000,218.000 32.000 C 218.092 32.000,218.167 31.629,218.167 31.177 C 218.167 30.724,218.242 30.307,218.333 30.250 C 218.425 30.193,218.500 29.851,218.500 29.490 C 218.500 29.129,218.425 28.833,218.333 28.833 C 218.242 28.833,218.167 28.495,218.167 28.081 C 218.167 27.667,218.100 27.199,218.019 27.039 C 217.938 26.880,217.771 26.534,217.647 26.270 C 217.261 25.451,215.389 23.667,214.915 23.667 C 214.778 23.667,214.667 23.592,214.667 23.500 C 214.667 23.408,214.517 23.333,214.333 23.333 C 214.150 23.333,214.000 23.258,214.000 23.167 C 214.000 23.075,213.850 23.000,213.667 23.000 C 213.483 23.000,213.333 22.939,213.333 22.863 C 213.333 22.788,212.958 22.625,212.500 22.500 C 212.042 22.375,211.667 22.212,211.667 22.137 C 211.667 22.061,211.516 22.000,211.331 22.000 C 211.146 22.000,210.865 21.934,210.706 21.853 C 210.547 21.772,210.192 21.611,209.917 21.496 C 208.296 20.817,207.823 20.483,207.375 19.701 C 207.149 19.307,207.088 18.167,207.293 18.167 C 207.362 18.167,207.518 17.942,207.640 17.667 C 207.762 17.392,207.949 17.165,208.056 17.163 C 208.163 17.161,208.438 17.013,208.667 16.833 C 208.896 16.654,209.252 16.506,209.458 16.504 C 209.665 16.502,209.833 16.425,209.833 16.333 C 209.833 16.242,210.204 16.167,210.657 16.167 C 211.110 16.167,211.527 16.242,211.583 16.333 C 211.640 16.425,211.832 16.500,212.010 16.500 C 212.188 16.500,212.333 16.575,212.333 16.667 C 212.333 16.758,212.449 16.833,212.591 16.833 C 212.957 16.833,213.518 17.454,213.985 18.375 C 214.503 19.399,214.552 19.398,216.706 18.312 C 216.865 18.232,217.077 18.167,217.176 18.167 C 217.409 18.167,217.833 17.744,217.833 17.512 C 217.833 17.414,217.758 17.333,217.667 17.333 C 217.575 17.333,217.500 17.160,217.500 16.948 C 217.500 16.736,217.350 16.402,217.167 16.205 C 216.983 16.008,216.833 15.762,216.833 15.657 C 216.833 15.434,215.769 14.333,215.553 14.333 C 215.473 14.333,215.299 14.183,215.167 14.000 C 215.035 13.817,214.793 13.667,214.630 13.667 C 214.467 13.667,214.333 13.592,214.333 13.500 C 214.333 13.408,214.188 13.333,214.010 13.333 C 213.832 13.333,213.640 13.258,213.583 13.167 C 213.527 13.075,213.227 13.000,212.917 13.000 C 212.607 13.000,212.307 12.925,212.250 12.833 C 212.193 12.741,211.446 12.667,210.583 12.667 C 209.721 12.667,208.973 12.741,208.917 12.833 M322.757 12.822 C 322.697 12.920,322.281 13.000,321.833 13.000 C 321.386 13.000,320.973 13.075,320.917 13.167 C 320.860 13.258,320.556 13.333,320.240 13.333 C 319.925 13.333,319.667 13.408,319.667 13.500 C 319.667 13.592,319.517 13.667,319.333 13.667 C 319.150 13.667,319.000 13.742,319.000 13.833 C 319.000 13.925,318.850 14.000,318.667 14.000 C 318.483 14.000,318.333 14.075,318.333 14.167 C 318.333 14.258,318.232 14.333,318.108 14.333 C 317.984 14.333,317.647 14.558,317.360 14.833 C 317.072 15.108,316.796 15.333,316.747 15.333 C 316.627 15.333,315.167 16.799,315.167 16.920 C 315.167 16.972,314.983 17.199,314.758 17.424 C 314.533 17.649,314.218 18.114,314.058 18.458 C 313.898 18.802,313.726 19.121,313.674 19.167 C 313.512 19.312,313.167 20.426,313.167 20.803 C 313.167 21.003,313.098 21.167,313.015 21.167 C 312.545 21.167,312.545 27.253,313.015 27.742 C 313.098 27.829,313.167 28.106,313.167 28.357 C 313.167 28.608,313.242 28.860,313.333 28.917 C 313.425 28.973,313.500 29.165,313.500 29.343 C 313.500 29.521,313.575 29.667,313.667 29.667 C 313.758 29.667,313.833 29.817,313.833 30.000 C 313.833 30.183,313.908 30.333,314.000 30.333 C 314.092 30.333,314.167 30.467,314.167 30.630 C 314.167 30.793,314.317 31.035,314.500 31.167 C 314.683 31.299,314.833 31.503,314.833 31.620 C 314.833 31.737,314.908 31.833,315.000 31.833 C 315.092 31.833,315.167 31.910,315.167 32.004 C 315.167 32.553,318.070 34.833,318.769 34.833 C 318.896 34.833,319.000 34.908,319.000 35.000 C 319.000 35.092,319.150 35.167,319.333 35.167 C 319.517 35.167,319.667 35.242,319.667 35.333 C 319.667 35.425,319.892 35.500,320.167 35.500 C 320.442 35.500,320.667 35.575,320.667 35.667 C 320.667 35.758,321.042 35.833,321.500 35.833 C 321.958 35.833,322.333 35.908,322.333 36.000 C 322.333 36.101,323.056 36.167,324.167 36.167 C 325.278 36.167,326.000 36.101,326.000 36.000 C 326.000 35.908,326.371 35.833,326.823 35.833 C 327.276 35.833,327.693 35.758,327.750 35.667 C 327.807 35.575,328.032 35.500,328.250 35.500 C 328.468 35.500,328.693 35.425,328.750 35.333 C 328.807 35.242,329.036 35.167,329.260 35.167 C 329.484 35.167,329.668 35.110,329.669 35.042 C 329.670 34.973,329.988 34.767,330.377 34.584 C 331.204 34.194,331.195 34.200,332.167 33.340 C 332.579 32.974,332.973 32.674,333.042 32.671 C 333.110 32.669,333.167 32.398,333.167 32.070 C 333.167 31.465,333.140 31.432,331.381 29.835 C 330.879 29.379,330.664 29.411,329.968 30.042 C 328.964 30.954,328.597 31.240,328.123 31.486 C 327.872 31.617,327.667 31.785,327.667 31.861 C 327.667 31.938,327.484 32.000,327.260 32.000 C 327.036 32.000,326.807 32.075,326.750 32.167 C 326.693 32.258,326.464 32.333,326.240 32.333 C 326.016 32.333,325.833 32.413,325.833 32.511 C 325.833 32.631,325.324 32.663,324.292 32.610 C 322.478 32.517,321.500 32.355,321.500 32.148 C 321.500 32.067,321.350 32.000,321.167 32.000 C 320.983 32.000,320.833 31.943,320.833 31.874 C 320.833 31.805,320.591 31.641,320.295 31.510 C 319.998 31.378,319.596 31.116,319.402 30.927 C 319.207 30.738,318.738 30.321,318.361 30.000 C 317.983 29.679,317.673 29.285,317.670 29.125 C 317.668 28.965,317.592 28.833,317.500 28.833 C 317.408 28.833,317.333 28.683,317.333 28.500 C 317.333 28.317,317.277 28.167,317.207 28.167 C 316.623 28.167,316.219 21.566,316.792 21.375 C 316.906 21.337,317.000 21.162,317.000 20.986 C 317.000 20.810,317.057 20.667,317.126 20.667 C 317.195 20.667,317.353 20.438,317.477 20.158 C 317.745 19.553,319.754 17.500,320.079 17.500 C 320.203 17.500,320.331 17.444,320.361 17.375 C 320.475 17.119,321.882 16.500,322.349 16.500 C 322.615 16.500,322.833 16.425,322.833 16.333 C 322.833 16.235,323.444 16.167,324.333 16.167 C 325.222 16.167,325.833 16.235,325.833 16.333 C 325.833 16.425,326.021 16.500,326.250 16.500 C 326.479 16.500,326.667 16.575,326.667 16.667 C 326.667 16.758,326.817 16.833,327.000 16.833 C 327.183 16.833,327.333 16.908,327.333 17.000 C 327.333 17.092,327.483 17.167,327.667 17.167 C 327.850 17.167,328.000 17.229,328.000 17.305 C 328.000 17.381,328.206 17.550,328.458 17.680 C 328.710 17.810,329.192 18.198,329.529 18.542 C 330.297 19.327,330.169 19.356,331.430 18.113 C 332.924 16.641,332.834 16.023,330.958 14.875 C 330.706 14.721,330.500 14.536,330.500 14.464 C 330.500 14.392,330.387 14.333,330.250 14.333 C 330.112 14.333,330.000 14.258,330.000 14.167 C 330.000 14.075,329.850 14.000,329.667 14.000 C 329.483 14.000,329.333 13.925,329.333 13.833 C 329.333 13.742,329.183 13.667,329.000 13.667 C 328.817 13.667,328.667 13.592,328.667 13.500 C 328.667 13.408,328.442 13.333,328.167 13.333 C 327.892 13.333,327.667 13.265,327.667 13.182 C 327.667 12.886,322.932 12.538,322.757 12.822 M63.000 24.417 L 63.000 35.500 68.083 35.500 C 71.361 35.500,73.167 35.441,73.167 35.333 C 73.167 35.242,73.393 35.167,73.669 35.167 C 73.945 35.167,74.301 35.099,74.461 35.017 C 74.620 34.935,75.087 34.732,75.500 34.567 C 76.461 34.182,77.500 33.485,78.106 32.819 C 78.369 32.531,78.827 32.044,79.125 31.737 C 79.423 31.429,79.667 31.063,79.667 30.922 C 79.667 30.782,79.742 30.667,79.833 30.667 C 79.925 30.667,80.000 30.517,80.000 30.333 C 80.000 30.150,80.075 30.000,80.167 30.000 C 80.258 30.000,80.333 29.887,80.333 29.750 C 80.333 29.613,80.408 29.500,80.500 29.500 C 80.592 29.500,80.667 29.275,80.667 29.000 C 80.667 28.725,80.742 28.500,80.833 28.500 C 80.925 28.500,81.000 28.242,81.000 27.927 C 81.000 27.611,81.075 27.307,81.167 27.250 C 81.266 27.188,81.333 26.085,81.333 24.500 C 81.333 22.915,81.266 21.812,81.167 21.750 C 81.075 21.693,81.000 21.389,81.000 21.073 C 81.000 20.758,80.925 20.500,80.833 20.500 C 80.742 20.500,80.667 20.275,80.667 20.000 C 80.667 19.725,80.592 19.500,80.500 19.500 C 80.408 19.500,80.333 19.350,80.333 19.167 C 80.333 18.983,80.258 18.833,80.167 18.833 C 80.075 18.833,80.000 18.683,80.000 18.500 C 80.000 18.317,79.925 18.167,79.833 18.167 C 79.742 18.167,79.667 18.093,79.667 18.002 C 79.667 17.588,77.079 15.000,76.665 15.000 C 76.574 15.000,76.500 14.925,76.500 14.833 C 76.500 14.742,76.350 14.667,76.167 14.667 C 75.983 14.667,75.833 14.592,75.833 14.500 C 75.833 14.408,75.683 14.333,75.500 14.333 C 75.317 14.333,75.167 14.258,75.167 14.167 C 75.167 14.075,74.942 14.000,74.667 14.000 C 74.392 14.000,74.167 13.925,74.167 13.833 C 74.167 13.742,73.904 13.667,73.583 13.667 C 73.262 13.667,73.000 13.592,73.000 13.500 C 73.000 13.393,71.222 13.333,68.000 13.333 L 63.000 13.333 63.000 24.417 M129.667 24.417 L 129.667 35.500 131.417 35.500 L 133.167 35.500 133.167 24.417 L 133.167 13.333 131.417 13.333 L 129.667 13.333 129.667 24.417 M257.944 13.444 C 257.759 13.630,257.813 21.000,258.000 21.000 C 258.092 21.000,258.167 21.072,258.167 21.159 C 258.167 21.246,257.942 21.190,257.668 21.034 C 257.393 20.878,257.168 20.694,257.168 20.625 C 257.167 20.556,257.017 20.500,256.833 20.500 C 256.650 20.500,256.500 20.425,256.500 20.333 C 256.500 20.242,256.354 20.167,256.177 20.167 C 255.999 20.167,255.807 20.092,255.750 20.000 C 255.693 19.908,255.318 19.833,254.917 19.833 C 254.515 19.833,254.140 19.758,254.083 19.667 C 254.027 19.575,253.689 19.500,253.333 19.500 C 252.977 19.500,252.640 19.575,252.583 19.667 C 252.527 19.758,252.152 19.833,251.750 19.833 C 251.348 19.833,250.973 19.908,250.917 20.000 C 250.860 20.092,250.668 20.167,250.490 20.167 C 250.312 20.167,250.167 20.242,250.167 20.333 C 250.167 20.425,250.051 20.500,249.910 20.500 C 249.768 20.500,249.562 20.576,249.451 20.668 C 249.341 20.761,248.987 21.060,248.667 21.332 C 248.346 21.605,248.027 21.829,247.958 21.831 C 247.890 21.832,247.833 21.909,247.833 22.002 C 247.833 22.094,247.608 22.405,247.333 22.693 C 247.058 22.981,246.833 23.315,246.833 23.436 C 246.833 23.557,246.694 23.904,246.525 24.206 C 245.970 25.193,245.568 29.468,245.990 29.890 C 246.087 29.987,246.167 30.274,246.167 30.528 C 246.167 30.782,246.317 31.257,246.500 31.583 C 246.683 31.910,246.833 32.270,246.833 32.385 C 246.833 32.499,246.983 32.701,247.167 32.833 C 247.350 32.965,247.500 33.155,247.500 33.255 C 247.500 33.586,248.855 34.833,249.214 34.833 C 249.331 34.833,249.535 34.983,249.667 35.167 C 249.799 35.350,250.036 35.500,250.194 35.500 C 250.351 35.500,250.527 35.575,250.583 35.667 C 250.640 35.758,250.865 35.833,251.083 35.833 C 251.302 35.833,251.527 35.908,251.583 36.000 C 251.640 36.092,252.387 36.167,253.250 36.167 C 254.113 36.167,254.860 36.092,254.917 36.000 C 254.973 35.908,255.236 35.833,255.500 35.833 C 255.764 35.833,256.027 35.758,256.083 35.667 C 256.140 35.575,256.315 35.500,256.473 35.500 C 256.631 35.500,256.868 35.350,257.000 35.167 C 257.132 34.983,257.374 34.833,257.537 34.833 C 257.700 34.833,257.833 34.758,257.833 34.667 C 257.833 34.575,257.908 34.500,258.000 34.500 C 258.092 34.500,258.167 34.725,258.167 35.000 L 258.167 35.500 259.917 35.500 L 261.667 35.500 261.667 24.417 L 261.667 13.333 259.861 13.333 C 258.868 13.333,258.006 13.383,257.944 13.444 M335.167 24.417 L 335.167 35.500 336.917 35.500 L 338.667 35.500 338.667 24.417 L 338.667 13.333 336.917 13.333 L 335.167 13.333 335.167 24.417 M357.667 24.417 L 357.667 35.500 359.406 35.500 L 361.146 35.500 361.198 34.999 L 361.250 34.498 361.833 34.999 C 362.154 35.274,362.585 35.499,362.792 35.500 C 362.998 35.500,363.167 35.575,363.167 35.667 C 363.167 35.758,363.392 35.833,363.667 35.833 C 363.942 35.833,364.167 35.908,364.167 36.000 C 364.167 36.100,364.830 36.167,365.823 36.167 C 366.748 36.167,367.526 36.093,367.583 36.000 C 367.640 35.908,367.869 35.833,368.093 35.833 C 368.317 35.833,368.500 35.758,368.500 35.667 C 368.500 35.575,368.650 35.500,368.833 35.500 C 369.017 35.500,369.167 35.425,369.167 35.333 C 369.167 35.242,369.282 35.167,369.423 35.167 C 369.563 35.167,369.866 34.998,370.095 34.792 C 371.198 33.799,371.833 33.105,371.833 32.897 C 371.833 32.770,371.894 32.667,371.969 32.667 C 372.131 32.667,372.593 31.729,372.950 30.677 C 373.259 29.768,373.310 25.464,373.013 25.365 C 372.914 25.333,372.833 25.087,372.833 24.819 C 372.833 24.552,372.758 24.333,372.667 24.333 C 372.575 24.333,372.500 24.183,372.500 24.000 C 372.500 23.817,372.425 23.667,372.333 23.667 C 372.242 23.667,372.167 23.517,372.167 23.333 C 372.167 23.150,372.109 23.000,372.039 23.000 C 371.969 23.000,371.735 22.713,371.518 22.362 C 371.301 22.011,370.908 21.579,370.645 21.403 C 370.383 21.227,370.167 21.027,370.167 20.958 C 370.167 20.890,370.017 20.833,369.833 20.833 C 369.650 20.833,369.500 20.758,369.500 20.667 C 369.500 20.575,369.387 20.500,369.250 20.500 C 369.113 20.500,369.000 20.425,369.000 20.333 C 369.000 20.242,368.854 20.167,368.677 20.167 C 368.499 20.167,368.307 20.092,368.250 20.000 C 368.193 19.908,367.818 19.833,367.417 19.833 C 367.015 19.833,366.640 19.758,366.583 19.667 C 366.527 19.575,366.185 19.500,365.823 19.500 C 365.462 19.500,365.167 19.575,365.167 19.667 C 365.167 19.758,364.792 19.833,364.333 19.833 C 363.875 19.833,363.500 19.908,363.500 20.000 C 363.500 20.092,363.275 20.167,363.000 20.167 C 362.725 20.167,362.500 20.228,362.500 20.302 C 362.500 20.377,362.200 20.598,361.833 20.794 L 361.167 21.150 361.167 17.242 L 361.167 13.333 359.417 13.333 L 357.667 13.333 357.667 24.417 M221.500 17.917 L 221.500 20.167 220.167 20.167 L 218.833 20.167 218.833 21.750 L 218.833 23.333 220.167 23.333 L 221.500 23.333 221.500 28.080 C 221.500 31.981,221.546 32.942,221.759 33.473 C 222.059 34.224,223.362 35.500,223.828 35.500 C 224.003 35.500,224.193 35.575,224.250 35.667 C 224.309 35.762,225.168 35.833,226.260 35.833 C 227.420 35.833,228.167 35.768,228.167 35.667 C 228.167 35.575,228.317 35.500,228.500 35.500 C 228.784 35.500,228.833 35.389,228.833 34.750 C 228.833 34.337,228.758 34.000,228.667 34.000 C 228.575 34.000,228.500 33.775,228.500 33.500 C 228.500 33.225,228.425 33.000,228.333 33.000 C 228.242 33.000,228.167 32.850,228.167 32.667 C 228.167 32.367,228.054 32.333,227.042 32.328 C 225.056 32.319,225.000 32.178,225.000 27.252 L 225.000 23.333 226.750 23.333 L 228.500 23.333 228.500 21.750 L 228.500 20.167 226.750 20.167 L 225.000 20.167 225.000 17.917 L 225.000 15.667 223.250 15.667 L 221.500 15.667 221.500 17.917 M297.500 17.917 L 297.500 20.167 296.167 20.167 L 294.833 20.167 294.833 21.750 L 294.833 23.333 296.155 23.333 L 297.477 23.333 297.530 28.125 C 297.581 32.728,297.598 32.945,297.961 33.635 C 298.409 34.488,299.051 35.167,299.409 35.167 C 299.551 35.167,299.667 35.242,299.667 35.333 C 299.667 35.425,299.817 35.500,300.000 35.500 C 300.183 35.500,300.333 35.575,300.333 35.667 C 300.333 35.769,301.139 35.833,302.417 35.833 C 303.694 35.833,304.500 35.769,304.500 35.667 C 304.500 35.575,304.650 35.500,304.833 35.500 C 305.278 35.500,305.116 34.060,304.614 33.559 C 304.551 33.496,304.500 33.302,304.500 33.127 C 304.500 32.560,304.084 32.333,303.042 32.333 C 301.310 32.333,301.277 32.245,301.194 27.375 L 301.126 23.333 302.980 23.333 L 304.833 23.333 304.833 21.750 L 304.833 20.167 303.000 20.167 L 301.167 20.167 301.167 17.917 L 301.167 15.667 299.333 15.667 L 297.500 15.667 297.500 17.917 M69.917 16.667 C 69.973 16.758,70.540 16.833,71.177 16.833 C 71.837 16.833,72.333 16.905,72.333 17.000 C 72.333 17.092,72.558 17.167,72.833 17.167 C 73.108 17.167,73.333 17.242,73.333 17.333 C 73.333 17.425,73.483 17.500,73.667 17.500 C 73.850 17.500,74.000 17.575,74.000 17.667 C 74.000 17.758,74.074 17.833,74.164 17.833 C 74.313 17.833,74.937 18.333,75.642 19.017 C 76.107 19.468,76.500 19.996,76.500 20.169 C 76.500 20.259,76.575 20.333,76.667 20.333 C 76.758 20.333,76.833 20.483,76.833 20.667 C 76.833 20.850,76.908 21.000,77.000 21.000 C 77.092 21.000,77.167 21.150,77.167 21.333 C 77.167 21.517,77.242 21.667,77.333 21.667 C 77.425 21.667,77.500 22.000,77.500 22.407 C 77.500 22.814,77.575 23.193,77.667 23.250 C 77.758 23.307,77.833 23.869,77.833 24.500 C 77.833 25.131,77.758 25.693,77.667 25.750 C 77.575 25.807,77.500 26.149,77.500 26.510 C 77.500 26.871,77.425 27.167,77.333 27.167 C 77.242 27.167,77.167 27.354,77.167 27.583 C 77.167 27.813,77.110 28.000,77.041 28.000 C 76.971 28.000,76.808 28.244,76.678 28.542 C 76.548 28.840,76.305 29.205,76.138 29.353 C 75.970 29.501,75.833 29.693,75.833 29.778 C 75.833 29.997,73.906 31.333,73.591 31.333 C 73.449 31.333,73.333 31.408,73.333 31.500 C 73.333 31.592,73.150 31.667,72.927 31.667 C 72.703 31.667,72.473 31.742,72.417 31.833 C 72.360 31.925,71.910 32.000,71.417 32.000 C 70.923 32.000,70.473 32.075,70.417 32.167 C 70.358 32.262,69.498 32.333,68.407 32.333 L 66.500 32.333 66.500 24.417 L 66.500 16.500 68.157 16.500 C 69.082 16.500,69.859 16.574,69.917 16.667 M89.083 19.667 C 89.027 19.758,88.572 19.833,88.073 19.833 C 87.575 19.833,87.167 19.908,87.167 20.000 C 87.167 20.092,86.993 20.167,86.781 20.167 C 86.570 20.167,86.235 20.317,86.038 20.500 C 85.842 20.683,85.581 20.833,85.460 20.833 C 85.147 20.833,83.718 22.280,83.464 22.854 C 83.348 23.117,83.195 23.333,83.126 23.333 C 83.057 23.333,83.000 23.483,83.000 23.667 C 83.000 23.850,82.925 24.000,82.833 24.000 C 82.742 24.000,82.667 24.225,82.667 24.500 C 82.667 24.775,82.592 25.000,82.500 25.000 C 82.408 25.000,82.333 25.441,82.333 25.990 C 82.333 26.535,82.258 27.027,82.167 27.083 C 82.075 27.140,82.000 27.515,82.000 27.917 C 82.000 28.318,82.075 28.693,82.167 28.750 C 82.258 28.807,82.333 29.261,82.333 29.760 C 82.333 30.259,82.408 30.667,82.500 30.667 C 82.592 30.667,82.667 30.892,82.667 31.167 C 82.667 31.442,82.742 31.667,82.833 31.667 C 82.925 31.667,83.000 31.817,83.000 32.000 C 83.000 32.183,83.075 32.333,83.167 32.333 C 83.258 32.333,83.333 32.445,83.333 32.582 C 83.333 32.838,83.829 33.494,84.417 34.017 C 85.392 34.884,85.770 35.166,85.958 35.166 C 86.073 35.167,86.167 35.242,86.167 35.333 C 86.167 35.425,86.312 35.500,86.490 35.500 C 86.668 35.500,86.860 35.575,86.917 35.667 C 86.973 35.758,87.278 35.833,87.593 35.833 C 87.909 35.833,88.167 35.908,88.167 36.000 C 88.167 36.101,88.889 36.167,90.000 36.167 C 91.111 36.167,91.833 36.101,91.833 36.000 C 91.833 35.908,92.091 35.833,92.407 35.833 C 92.722 35.833,93.027 35.758,93.083 35.667 C 93.140 35.575,93.332 35.500,93.510 35.500 C 93.688 35.500,93.833 35.425,93.833 35.333 C 93.833 35.242,93.956 35.167,94.105 35.167 C 94.255 35.167,94.499 35.034,94.647 34.873 C 94.795 34.711,95.197 34.392,95.541 34.164 C 95.884 33.936,96.165 33.662,96.166 33.556 C 96.166 33.449,96.226 33.336,96.298 33.306 C 96.590 33.182,97.167 32.171,97.167 31.783 C 97.167 30.711,93.518 29.714,93.497 30.780 C 93.491 31.089,92.531 31.977,91.842 32.310 C 91.052 32.692,88.667 32.835,88.667 32.500 C 88.667 32.408,88.555 32.333,88.419 32.333 C 87.971 32.333,86.701 31.138,86.348 30.386 C 86.227 30.128,86.062 29.786,85.981 29.627 C 85.567 28.814,85.431 28.833,91.566 28.833 C 96.639 28.833,97.309 28.803,97.399 28.570 C 97.578 28.102,97.507 26.780,97.237 25.583 C 96.817 23.716,96.802 23.667,96.647 23.667 C 96.566 23.667,96.500 23.517,96.500 23.333 C 96.500 23.150,96.425 23.000,96.333 23.000 C 96.242 23.000,96.167 22.893,96.167 22.763 C 96.167 22.426,94.754 21.057,94.073 20.734 C 93.758 20.584,93.500 20.396,93.500 20.314 C 93.500 20.233,93.275 20.167,93.000 20.167 C 92.725 20.167,92.500 20.092,92.500 20.000 C 92.500 19.908,92.087 19.833,91.583 19.833 C 91.079 19.833,90.667 19.758,90.667 19.667 C 90.667 19.575,90.334 19.500,89.927 19.500 C 89.519 19.500,89.140 19.575,89.083 19.667 M119.667 19.667 C 119.667 19.758,119.259 19.833,118.760 19.833 C 118.261 19.833,117.807 19.908,117.750 20.000 C 117.693 20.092,117.516 20.167,117.355 20.167 C 117.194 20.167,116.902 20.317,116.705 20.500 C 116.508 20.683,116.248 20.833,116.126 20.833 C 115.857 20.833,114.338 22.269,114.026 22.818 C 113.282 24.128,113.167 24.372,113.167 24.638 C 113.167 24.801,113.098 25.005,113.015 25.092 C 112.583 25.541,112.583 30.667,113.014 30.667 C 113.098 30.667,113.167 30.892,113.167 31.167 C 113.167 31.442,113.242 31.667,113.333 31.667 C 113.425 31.667,113.500 31.817,113.500 32.000 C 113.500 32.183,113.575 32.333,113.667 32.333 C 113.758 32.333,113.833 32.438,113.833 32.566 C 113.833 32.695,114.206 33.163,114.661 33.608 C 116.000 34.917,116.307 35.167,116.577 35.167 C 116.718 35.167,116.833 35.242,116.833 35.333 C 116.833 35.425,116.979 35.500,117.157 35.500 C 117.335 35.500,117.527 35.575,117.583 35.667 C 117.640 35.758,117.907 35.833,118.177 35.833 C 118.446 35.833,118.667 35.908,118.667 36.000 C 118.667 36.101,119.417 36.167,120.583 36.167 C 121.750 36.167,122.500 36.101,122.500 36.000 C 122.500 35.908,122.763 35.833,123.083 35.833 C 123.404 35.833,123.667 35.758,123.667 35.667 C 123.667 35.575,123.854 35.500,124.083 35.500 C 124.313 35.500,124.500 35.425,124.500 35.333 C 124.500 35.242,124.598 35.167,124.719 35.167 C 124.839 35.167,125.083 35.033,125.260 34.870 C 125.438 34.708,125.827 34.402,126.125 34.192 C 126.423 33.982,126.667 33.720,126.667 33.609 C 126.667 33.498,126.817 33.299,127.000 33.167 C 127.183 33.035,127.333 32.830,127.333 32.713 C 127.333 32.596,127.408 32.500,127.500 32.500 C 127.755 32.500,127.698 31.508,127.429 31.238 C 127.298 31.107,127.073 31.000,126.929 31.000 C 126.785 31.000,126.667 30.925,126.667 30.833 C 126.667 30.742,126.563 30.667,126.436 30.667 C 126.309 30.667,125.990 30.555,125.727 30.418 C 125.002 30.039,124.167 30.220,124.167 30.755 C 124.167 30.999,122.594 32.333,122.307 32.333 C 122.138 32.333,122.000 32.408,122.000 32.500 C 122.000 32.597,121.444 32.667,120.667 32.667 C 119.889 32.667,119.333 32.597,119.333 32.500 C 119.333 32.408,119.183 32.333,119.000 32.333 C 118.817 32.333,118.667 32.258,118.667 32.167 C 118.667 32.075,118.573 32.000,118.458 32.000 C 118.182 32.000,117.333 31.262,117.333 31.022 C 117.333 30.918,117.258 30.833,117.167 30.833 C 117.075 30.833,117.000 30.727,117.000 30.597 C 117.000 30.467,116.934 30.336,116.853 30.306 C 116.772 30.275,116.653 29.931,116.588 29.542 L 116.471 28.833 122.235 28.833 L 128.000 28.833 128.000 27.343 C 128.000 26.524,127.925 25.807,127.833 25.750 C 127.742 25.693,127.667 25.351,127.667 24.990 C 127.667 24.629,127.592 24.333,127.500 24.333 C 127.408 24.333,127.333 24.183,127.333 24.000 C 127.333 23.817,127.258 23.667,127.167 23.667 C 127.075 23.667,127.000 23.517,127.000 23.333 C 127.000 23.150,126.925 23.000,126.833 23.000 C 126.742 23.000,126.667 22.889,126.667 22.753 C 126.667 22.465,125.193 20.835,124.929 20.830 C 124.830 20.828,124.563 20.679,124.333 20.500 C 124.104 20.321,123.748 20.172,123.542 20.170 C 123.335 20.168,123.167 20.092,123.167 20.000 C 123.167 19.907,122.722 19.833,122.167 19.833 C 121.611 19.833,121.167 19.759,121.167 19.667 C 121.167 19.575,120.829 19.500,120.417 19.500 C 120.004 19.500,119.667 19.575,119.667 19.667 M142.083 19.667 C 142.027 19.758,141.610 19.833,141.157 19.833 C 140.704 19.833,140.333 19.908,140.333 20.000 C 140.333 20.092,140.108 20.167,139.833 20.167 C 139.558 20.167,139.333 20.242,139.333 20.333 C 139.333 20.425,139.183 20.500,139.000 20.500 C 138.817 20.500,138.667 20.575,138.667 20.667 C 138.667 20.758,138.549 20.833,138.406 20.833 C 138.038 20.833,136.482 22.452,136.083 23.250 C 135.900 23.617,135.694 23.942,135.625 23.972 C 135.556 24.003,135.500 24.247,135.500 24.514 C 135.500 24.781,135.425 25.000,135.333 25.000 C 135.241 25.000,135.167 25.444,135.167 26.000 C 135.167 26.556,135.093 27.000,135.000 27.000 C 134.908 27.000,134.833 27.371,134.833 27.823 C 134.833 28.276,134.908 28.693,135.000 28.750 C 135.092 28.807,135.167 29.261,135.167 29.760 C 135.167 30.259,135.242 30.667,135.333 30.667 C 135.425 30.667,135.500 30.892,135.500 31.167 C 135.500 31.442,135.575 31.667,135.667 31.667 C 135.758 31.667,135.833 31.806,135.833 31.977 C 135.833 32.334,136.548 33.443,137.065 33.885 C 137.258 34.051,137.586 34.332,137.793 34.510 C 138.000 34.688,138.225 34.835,138.293 34.837 C 138.361 34.839,138.604 34.987,138.833 35.167 C 139.063 35.346,139.419 35.494,139.625 35.496 C 139.831 35.498,140.000 35.575,140.000 35.667 C 140.000 35.758,140.225 35.833,140.500 35.833 C 140.775 35.833,141.000 35.908,141.000 36.000 C 141.000 36.101,141.750 36.167,142.917 36.167 C 144.083 36.167,144.833 36.101,144.833 36.000 C 144.833 35.908,145.096 35.833,145.417 35.833 C 145.737 35.833,146.000 35.758,146.000 35.667 C 146.000 35.575,146.150 35.500,146.333 35.500 C 146.517 35.500,146.667 35.425,146.667 35.333 C 146.667 35.242,146.817 35.167,147.000 35.167 C 147.183 35.167,147.333 35.092,147.333 35.000 C 147.333 34.908,147.427 34.833,147.542 34.833 C 148.169 34.833,150.167 32.341,150.167 31.558 C 150.167 31.434,150.242 31.333,150.333 31.333 C 150.425 31.333,150.500 31.108,150.500 30.833 C 150.500 30.558,150.575 30.333,150.667 30.333 C 150.770 30.333,150.833 29.444,150.833 28.000 C 150.833 26.556,150.770 25.667,150.667 25.667 C 150.575 25.667,150.500 25.367,150.500 25.000 C 150.500 24.633,150.425 24.333,150.333 24.333 C 150.242 24.333,150.167 24.183,150.167 24.000 C 150.167 23.817,150.092 23.667,150.000 23.667 C 149.908 23.667,149.833 23.521,149.833 23.343 C 149.833 22.965,147.766 20.833,147.400 20.833 C 147.264 20.833,146.992 20.683,146.795 20.500 C 146.598 20.317,146.264 20.167,146.052 20.167 C 145.840 20.167,145.667 20.092,145.667 20.000 C 145.667 19.908,145.259 19.833,144.760 19.833 C 144.261 19.833,143.807 19.758,143.750 19.667 C 143.693 19.575,143.318 19.500,142.917 19.500 C 142.515 19.500,142.140 19.575,142.083 19.667 M160.000 19.667 C 160.000 19.758,159.625 19.833,159.167 19.833 C 158.708 19.833,158.333 19.908,158.333 20.000 C 158.333 20.092,158.125 20.167,157.870 20.167 C 157.598 20.167,157.308 20.304,157.167 20.500 C 157.035 20.683,156.808 20.833,156.663 20.833 C 156.518 20.833,156.310 20.923,156.200 21.033 C 156.044 21.189,156.000 21.115,156.000 20.700 L 156.000 20.167 154.249 20.167 L 152.498 20.167 152.540 31.208 L 152.583 42.250 154.289 42.297 L 155.994 42.345 156.039 38.413 L 156.083 34.481 156.451 34.824 C 156.654 35.012,156.935 35.167,157.076 35.167 C 157.218 35.167,157.333 35.242,157.333 35.333 C 157.333 35.425,157.483 35.500,157.667 35.500 C 157.850 35.500,158.000 35.575,158.000 35.667 C 158.000 35.758,158.225 35.833,158.500 35.833 C 158.775 35.833,159.000 35.908,159.000 36.000 C 159.000 36.101,159.694 36.167,160.750 36.167 C 161.806 36.167,162.500 36.101,162.500 36.000 C 162.500 35.908,162.643 35.833,162.818 35.833 C 163.189 35.833,164.397 35.229,164.983 34.750 C 165.829 34.058,167.000 32.791,167.000 32.566 C 167.000 32.438,167.075 32.333,167.167 32.333 C 167.258 32.333,167.333 32.183,167.333 32.000 C 167.333 31.817,167.408 31.667,167.500 31.667 C 167.592 31.667,167.667 31.442,167.667 31.167 C 167.667 30.892,167.735 30.667,167.819 30.667 C 167.971 30.667,168.170 29.164,168.184 27.917 C 168.192 27.155,167.946 25.412,167.761 24.917 C 167.507 24.241,166.913 23.082,166.792 23.028 C 166.723 22.997,166.667 22.866,166.667 22.736 C 166.667 22.606,166.592 22.500,166.500 22.500 C 166.408 22.500,166.333 22.416,166.333 22.314 C 166.333 22.046,164.964 20.833,164.662 20.833 C 164.522 20.833,164.299 20.683,164.167 20.500 C 164.035 20.317,163.755 20.167,163.547 20.167 C 163.338 20.167,163.167 20.092,163.167 20.000 C 163.167 19.908,162.792 19.833,162.333 19.833 C 161.875 19.833,161.500 19.758,161.500 19.667 C 161.500 19.575,161.162 19.500,160.750 19.500 C 160.337 19.500,160.000 19.575,160.000 19.667 M176.000 19.667 C 176.000 19.758,175.588 19.833,175.083 19.833 C 174.579 19.833,174.167 19.908,174.167 20.000 C 174.167 20.092,173.993 20.167,173.781 20.167 C 173.570 20.167,173.235 20.317,173.038 20.500 C 172.842 20.683,172.584 20.833,172.465 20.833 C 172.151 20.833,170.978 21.964,170.376 22.847 C 168.786 25.181,168.606 29.201,169.962 32.140 C 170.446 33.188,172.373 35.167,172.911 35.167 C 173.051 35.167,173.167 35.242,173.167 35.333 C 173.167 35.425,173.312 35.500,173.490 35.500 C 173.668 35.500,173.860 35.575,173.917 35.667 C 173.973 35.758,174.236 35.833,174.500 35.833 C 174.764 35.833,175.027 35.908,175.083 36.000 C 175.142 36.095,175.974 36.167,177.010 36.167 C 178.114 36.167,178.833 36.101,178.833 36.000 C 178.833 35.908,179.091 35.833,179.407 35.833 C 179.722 35.833,180.027 35.758,180.083 35.667 C 180.140 35.575,180.332 35.500,180.510 35.500 C 180.688 35.500,180.833 35.425,180.833 35.333 C 180.833 35.242,180.945 35.167,181.080 35.167 C 181.544 35.167,183.667 33.114,183.667 32.665 C 183.667 32.574,183.742 32.500,183.833 32.500 C 184.088 32.500,184.032 31.508,183.762 31.238 C 183.631 31.107,183.412 31.000,183.276 31.000 C 183.139 31.000,183.003 30.944,182.972 30.875 C 182.647 30.143,180.500 30.039,180.500 30.755 C 180.500 30.999,178.928 32.333,178.640 32.333 C 178.471 32.333,178.333 32.408,178.333 32.500 C 178.333 32.597,177.778 32.667,177.000 32.667 C 176.222 32.667,175.667 32.597,175.667 32.500 C 175.667 32.408,175.517 32.333,175.333 32.333 C 175.150 32.333,175.000 32.263,175.000 32.178 C 175.000 32.092,174.859 31.978,174.686 31.923 C 174.164 31.757,173.767 31.297,173.289 30.302 C 172.521 28.705,172.057 28.833,178.583 28.833 L 184.333 28.833 184.333 27.343 C 184.333 26.524,184.258 25.807,184.167 25.750 C 184.075 25.693,184.000 25.351,184.000 24.990 C 184.000 24.629,183.925 24.333,183.833 24.333 C 183.742 24.333,183.667 24.183,183.667 24.000 C 183.667 23.817,183.592 23.667,183.500 23.667 C 183.408 23.667,183.333 23.527,183.333 23.357 C 183.333 22.778,181.749 20.860,181.250 20.835 C 181.158 20.830,180.896 20.679,180.667 20.500 C 180.438 20.321,180.081 20.172,179.875 20.170 C 179.669 20.168,179.500 20.092,179.500 20.000 C 179.500 19.908,179.092 19.833,178.593 19.833 C 178.094 19.833,177.640 19.758,177.583 19.667 C 177.527 19.575,177.147 19.500,176.740 19.500 C 176.333 19.500,176.000 19.575,176.000 19.667 M270.167 19.667 C 270.167 19.758,269.759 19.833,269.260 19.833 C 268.761 19.833,268.307 19.908,268.250 20.000 C 268.193 20.092,268.001 20.167,267.823 20.167 C 267.646 20.167,267.500 20.242,267.500 20.333 C 267.500 20.425,267.350 20.500,267.167 20.500 C 266.983 20.500,266.833 20.575,266.833 20.667 C 266.833 20.758,266.719 20.833,266.579 20.833 C 266.019 20.833,264.333 22.770,264.333 23.413 C 264.333 23.553,264.258 23.667,264.167 23.667 C 264.075 23.667,264.000 23.817,264.000 24.000 C 264.000 24.183,263.925 24.333,263.833 24.333 C 263.742 24.333,263.667 24.558,263.667 24.833 C 263.667 25.108,263.592 25.333,263.500 25.333 C 263.396 25.333,263.333 26.278,263.333 27.833 C 263.333 29.389,263.396 30.333,263.500 30.333 C 263.592 30.333,263.667 30.554,263.667 30.823 C 263.667 31.825,265.748 34.803,266.465 34.826 C 266.584 34.830,266.842 34.983,267.038 35.167 C 267.235 35.350,267.570 35.500,267.781 35.500 C 267.993 35.500,268.167 35.575,268.167 35.667 C 268.167 35.758,268.392 35.833,268.667 35.833 C 268.942 35.833,269.167 35.908,269.167 36.000 C 269.167 36.101,269.886 36.167,270.990 36.167 C 272.026 36.167,272.858 36.095,272.917 36.000 C 272.973 35.908,273.278 35.833,273.593 35.833 C 273.909 35.833,274.167 35.758,274.167 35.667 C 274.167 35.575,274.317 35.500,274.500 35.500 C 274.683 35.500,274.833 35.425,274.833 35.333 C 274.833 35.242,274.977 35.167,275.153 35.167 C 275.328 35.167,275.497 35.106,275.528 35.032 C 275.558 34.958,275.940 34.654,276.375 34.357 C 276.810 34.060,277.167 33.765,277.167 33.700 C 277.167 33.636,277.362 33.358,277.601 33.083 C 278.644 31.881,278.557 31.566,276.962 30.778 C 275.459 30.035,275.002 30.005,274.632 30.625 C 274.197 31.352,273.229 32.333,272.946 32.333 C 272.803 32.333,272.640 32.408,272.583 32.500 C 272.527 32.592,271.847 32.667,271.073 32.667 C 270.247 32.667,269.667 32.598,269.667 32.500 C 269.667 32.408,269.545 32.333,269.396 32.333 C 269.063 32.333,267.500 30.749,267.500 30.411 C 267.500 30.277,267.434 30.167,267.353 30.167 C 267.272 30.167,267.169 29.998,267.124 29.792 C 267.079 29.585,266.988 29.286,266.921 29.127 C 266.807 28.856,267.166 28.835,272.608 28.794 L 278.417 28.750 278.470 27.667 C 278.531 26.414,278.268 24.889,277.816 23.877 C 277.642 23.488,277.500 23.100,277.500 23.014 C 277.500 22.871,275.877 21.188,275.275 20.708 C 275.132 20.594,274.898 20.500,274.757 20.500 C 274.616 20.500,274.500 20.425,274.500 20.333 C 274.500 20.242,274.275 20.167,274.000 20.167 C 273.725 20.167,273.500 20.092,273.500 20.000 C 273.500 19.908,273.129 19.833,272.677 19.833 C 272.224 19.833,271.807 19.758,271.750 19.667 C 271.693 19.575,271.314 19.500,270.907 19.500 C 270.500 19.500,270.167 19.575,270.167 19.667 M287.500 19.667 C 287.500 19.758,287.125 19.833,286.667 19.833 C 286.208 19.833,285.833 19.908,285.833 20.000 C 285.833 20.092,285.683 20.167,285.500 20.167 C 285.317 20.167,285.167 20.242,285.167 20.333 C 285.167 20.425,285.049 20.500,284.905 20.500 C 284.761 20.500,284.544 20.594,284.423 20.708 C 283.547 21.540,283.500 21.547,283.500 20.832 L 283.500 20.167 281.851 20.167 C 279.791 20.167,280.000 19.302,280.000 27.833 C 280.000 31.760,280.046 35.091,280.101 35.236 C 280.185 35.454,280.516 35.500,282.018 35.500 L 283.833 35.500 283.833 30.667 C 283.833 27.556,283.893 25.833,284.000 25.833 C 284.092 25.833,284.167 25.652,284.167 25.431 C 284.167 25.209,284.223 25.003,284.292 24.972 C 284.360 24.942,284.627 24.635,284.883 24.292 C 285.140 23.948,285.459 23.667,285.592 23.667 C 285.725 23.667,285.834 23.610,285.835 23.542 C 285.835 23.473,286.038 23.323,286.285 23.208 C 286.781 22.978,288.500 22.921,288.500 23.136 C 288.500 23.210,288.762 23.374,289.083 23.500 C 289.404 23.626,289.668 23.809,289.670 23.906 C 289.672 24.004,289.821 24.271,290.000 24.500 C 290.189 24.742,290.327 25.179,290.330 25.542 C 290.332 25.885,290.408 26.167,290.500 26.167 C 290.607 26.167,290.667 27.833,290.667 30.833 L 290.667 35.500 292.417 35.500 L 294.167 35.500 294.167 29.917 C 294.167 26.306,294.108 24.333,294.000 24.333 C 293.908 24.333,293.833 24.033,293.833 23.667 C 293.833 23.300,293.758 23.000,293.667 23.000 C 293.575 23.000,293.500 22.886,293.500 22.748 C 293.500 21.961,291.706 20.167,290.919 20.167 C 290.780 20.167,290.667 20.092,290.667 20.000 C 290.667 19.908,290.292 19.833,289.833 19.833 C 289.375 19.833,289.000 19.758,289.000 19.667 C 289.000 19.575,288.662 19.500,288.250 19.500 C 287.837 19.500,287.500 19.575,287.500 19.667 M379.667 19.667 C 379.667 19.758,379.259 19.833,378.760 19.833 C 378.261 19.833,377.807 19.908,377.750 20.000 C 377.693 20.092,377.501 20.167,377.323 20.167 C 377.146 20.167,377.000 20.242,377.000 20.333 C 377.000 20.425,376.888 20.500,376.751 20.500 C 376.506 20.500,376.002 20.875,375.218 21.640 C 374.999 21.854,374.775 22.248,374.722 22.515 C 374.669 22.782,374.559 23.000,374.479 23.000 C 374.159 23.000,374.321 25.578,374.688 26.339 C 375.028 27.042,375.884 28.000,376.172 28.000 C 376.248 28.000,376.409 28.094,376.530 28.210 C 376.799 28.466,378.829 29.167,379.304 29.167 C 379.493 29.167,379.693 29.242,379.750 29.333 C 379.807 29.425,380.011 29.500,380.204 29.500 C 381.638 29.500,383.452 30.670,383.253 31.466 C 383.127 31.966,382.778 32.333,382.429 32.333 C 382.285 32.333,382.167 32.408,382.167 32.500 C 382.167 32.592,381.919 32.667,381.617 32.667 C 381.314 32.667,380.967 32.760,380.846 32.875 C 380.669 33.042,380.610 33.042,380.549 32.875 C 380.507 32.760,380.290 32.667,380.067 32.667 C 379.321 32.667,378.190 31.800,377.626 30.797 C 377.326 30.263,377.187 30.167,376.711 30.167 C 376.037 30.167,373.833 31.134,373.833 31.429 C 373.833 32.318,376.082 35.167,376.783 35.167 C 376.903 35.167,377.000 35.242,377.000 35.333 C 377.000 35.425,377.146 35.500,377.323 35.500 C 377.501 35.500,377.693 35.575,377.750 35.667 C 377.807 35.758,378.111 35.833,378.427 35.833 C 378.742 35.833,379.000 35.908,379.000 36.000 C 379.000 36.100,379.691 36.167,380.740 36.167 C 381.720 36.167,382.525 36.094,382.583 36.000 C 382.640 35.908,382.907 35.833,383.177 35.833 C 383.446 35.833,383.667 35.758,383.667 35.667 C 383.667 35.575,383.817 35.500,384.000 35.500 C 384.183 35.500,384.333 35.425,384.333 35.333 C 384.333 35.242,384.445 35.167,384.582 35.167 C 384.719 35.167,385.000 35.021,385.207 34.843 C 385.414 34.666,385.744 34.383,385.940 34.215 C 386.840 33.444,387.587 29.500,386.833 29.500 C 386.742 29.500,386.667 29.356,386.667 29.181 C 386.667 29.005,386.610 28.836,386.542 28.806 C 386.473 28.775,386.207 28.469,385.950 28.125 C 385.693 27.781,385.374 27.500,385.242 27.500 C 385.109 27.500,385.000 27.443,385.000 27.374 C 385.000 27.305,384.756 27.150,384.458 27.030 C 384.160 26.910,383.786 26.741,383.627 26.656 C 383.468 26.570,383.191 26.500,383.012 26.500 C 382.833 26.500,382.640 26.425,382.583 26.333 C 382.527 26.242,382.264 26.167,382.000 26.167 C 381.736 26.167,381.478 26.100,381.428 26.018 C 381.377 25.936,381.054 25.830,380.709 25.782 C 378.705 25.505,377.946 24.959,378.247 24.009 C 378.475 23.291,381.500 22.507,381.500 23.167 C 381.500 23.258,381.614 23.333,381.752 23.333 C 382.152 23.333,383.167 23.981,383.167 24.236 C 383.167 24.777,383.963 25.108,384.544 24.807 C 385.326 24.403,385.503 24.333,385.748 24.333 C 385.886 24.333,386.000 24.258,386.000 24.167 C 386.000 24.075,386.142 24.000,386.316 24.000 C 386.489 24.000,386.676 23.882,386.732 23.737 C 386.857 23.410,386.683 22.667,386.482 22.667 C 386.400 22.667,386.333 22.547,386.333 22.400 C 386.333 22.014,384.672 20.500,384.249 20.500 C 384.112 20.500,384.000 20.425,384.000 20.333 C 384.000 20.242,383.817 20.167,383.593 20.167 C 383.369 20.167,383.140 20.092,383.083 20.000 C 383.027 19.908,382.614 19.833,382.167 19.833 C 381.719 19.833,381.307 19.758,381.250 19.667 C 381.193 19.575,380.814 19.500,380.407 19.500 C 380.000 19.500,379.667 19.575,379.667 19.667 M191.833 20.000 C 191.833 20.092,191.683 20.167,191.500 20.167 C 191.317 20.167,191.167 20.242,191.167 20.333 C 191.167 20.425,191.051 20.500,190.909 20.500 C 190.768 20.500,190.450 20.688,190.203 20.917 C 189.607 21.469,189.500 21.444,189.500 20.750 L 189.500 20.167 187.750 20.167 L 186.000 20.167 186.000 27.833 L 186.000 35.500 187.750 35.500 L 189.500 35.500 189.500 31.333 C 189.500 28.667,189.560 27.167,189.667 27.167 C 189.758 27.167,189.833 26.867,189.833 26.500 C 189.833 26.133,189.908 25.833,190.000 25.833 C 190.092 25.833,190.167 25.683,190.167 25.500 C 190.167 25.317,190.242 25.167,190.333 25.167 C 190.425 25.167,190.500 25.088,190.500 24.992 C 190.500 24.720,191.202 24.086,191.795 23.824 C 192.091 23.693,192.333 23.529,192.333 23.459 C 192.333 23.255,194.143 23.316,194.489 23.532 C 194.847 23.755,195.333 23.484,195.333 23.061 C 195.333 22.933,195.399 22.699,195.480 22.539 C 195.981 21.546,196.132 20.366,195.800 20.033 C 195.549 19.782,191.833 19.751,191.833 20.000 M97.500 20.637 C 97.500 21.149,97.956 22.654,98.189 22.908 C 98.268 22.995,98.333 23.199,98.333 23.362 C 98.333 23.524,98.483 23.924,98.667 24.250 C 98.850 24.576,99.000 24.991,99.000 25.172 C 99.000 25.352,99.075 25.500,99.167 25.500 C 99.258 25.500,99.333 25.650,99.333 25.833 C 99.333 26.017,99.408 26.167,99.500 26.167 C 99.592 26.167,99.667 26.350,99.667 26.573 C 99.667 26.797,99.742 27.027,99.833 27.083 C 99.925 27.140,100.000 27.332,100.000 27.510 C 100.000 27.688,100.075 27.833,100.167 27.833 C 100.258 27.833,100.333 28.016,100.333 28.240 C 100.333 28.464,100.408 28.693,100.500 28.750 C 100.592 28.807,100.667 28.999,100.667 29.177 C 100.667 29.354,100.742 29.500,100.833 29.500 C 100.925 29.500,101.000 29.688,101.000 29.917 C 101.000 30.146,101.075 30.333,101.167 30.333 C 101.258 30.333,101.333 30.483,101.333 30.667 C 101.333 30.850,101.408 31.000,101.500 31.000 C 101.592 31.000,101.667 31.225,101.667 31.500 C 101.667 31.775,101.742 32.000,101.833 32.000 C 101.925 32.000,102.000 32.150,102.000 32.333 C 102.000 32.517,102.075 32.667,102.167 32.667 C 102.258 32.667,102.333 32.814,102.333 32.994 C 102.333 33.175,102.440 33.568,102.570 33.869 C 102.699 34.170,102.896 34.660,103.006 34.958 L 103.207 35.500 105.062 35.499 C 107.054 35.497,107.333 35.350,107.333 34.300 C 107.333 34.135,107.408 34.000,107.500 34.000 C 107.592 34.000,107.667 33.854,107.667 33.677 C 107.667 33.499,107.742 33.307,107.833 33.250 C 107.925 33.193,108.000 32.964,108.000 32.740 C 108.000 32.516,108.075 32.333,108.167 32.333 C 108.258 32.333,108.333 32.183,108.333 32.000 C 108.333 31.817,108.408 31.667,108.500 31.667 C 108.592 31.667,108.667 31.484,108.667 31.260 C 108.667 31.036,108.742 30.807,108.833 30.750 C 108.925 30.693,109.000 30.501,109.000 30.323 C 109.000 30.146,109.075 30.000,109.167 30.000 C 109.258 30.000,109.333 29.854,109.333 29.677 C 109.333 29.499,109.408 29.307,109.500 29.250 C 109.592 29.193,109.667 29.001,109.667 28.823 C 109.667 28.646,109.728 28.500,109.803 28.500 C 109.878 28.500,110.042 28.125,110.167 27.667 C 110.291 27.208,110.441 26.833,110.500 26.833 C 110.559 26.833,110.709 26.458,110.833 26.000 C 110.958 25.542,111.106 25.167,111.161 25.167 C 111.217 25.167,111.410 24.679,111.590 24.083 C 111.770 23.488,111.973 23.000,112.042 23.000 C 112.110 23.000,112.167 22.817,112.167 22.593 C 112.167 22.369,112.242 22.140,112.333 22.083 C 112.425 22.027,112.500 21.835,112.500 21.657 C 112.500 21.479,112.575 21.333,112.667 21.333 C 112.758 21.333,112.833 21.071,112.833 20.750 L 112.833 20.167 110.917 20.167 C 109.297 20.167,109.000 20.207,109.000 20.425 C 109.000 20.567,108.850 20.993,108.667 21.373 C 108.483 21.752,108.333 22.192,108.333 22.351 C 108.333 22.509,108.277 22.664,108.208 22.694 C 108.051 22.764,107.167 25.327,107.167 25.713 C 107.167 25.871,107.092 26.000,107.000 26.000 C 106.908 26.000,106.833 26.188,106.833 26.417 C 106.833 26.646,106.758 26.833,106.667 26.833 C 106.575 26.833,106.500 26.979,106.500 27.157 C 106.500 27.335,106.425 27.527,106.333 27.583 C 106.242 27.640,106.167 27.869,106.167 28.093 C 106.167 28.317,106.092 28.500,106.000 28.500 C 105.908 28.500,105.833 28.683,105.833 28.907 C 105.833 29.131,105.758 29.360,105.667 29.417 C 105.575 29.473,105.500 29.633,105.500 29.772 C 105.500 30.075,105.082 30.526,104.937 30.381 C 104.880 30.324,104.833 30.103,104.833 29.889 C 104.833 29.675,104.758 29.500,104.667 29.500 C 104.575 29.500,104.500 29.317,104.500 29.093 C 104.500 28.869,104.425 28.640,104.333 28.583 C 104.242 28.527,104.167 28.335,104.167 28.157 C 104.167 27.979,104.092 27.833,104.000 27.833 C 103.908 27.833,103.833 27.608,103.833 27.333 C 103.833 27.058,103.758 26.833,103.667 26.833 C 103.575 26.833,103.500 26.646,103.500 26.417 C 103.500 26.188,103.425 26.000,103.333 26.000 C 103.242 26.000,103.167 25.850,103.167 25.667 C 103.167 25.483,103.092 25.333,103.000 25.333 C 102.908 25.333,102.833 25.108,102.833 24.833 C 102.833 24.558,102.758 24.333,102.667 24.333 C 102.575 24.333,102.500 24.185,102.500 24.003 C 102.500 23.626,101.922 21.995,101.481 21.127 C 101.400 20.968,101.333 20.687,101.333 20.502 C 101.333 20.185,101.227 20.167,99.417 20.167 L 97.500 20.167 97.500 20.637 M230.500 26.250 C 230.500 30.194,230.559 32.333,230.667 32.333 C 230.758 32.333,230.833 32.523,230.833 32.756 C 230.833 33.890,232.941 35.833,234.172 35.833 C 234.444 35.833,234.667 35.908,234.667 36.000 C 234.667 36.099,235.306 36.167,236.250 36.167 C 237.194 36.167,237.833 36.099,237.833 36.000 C 237.833 35.908,238.058 35.833,238.333 35.833 C 238.608 35.833,238.833 35.758,238.833 35.667 C 238.833 35.575,238.966 35.500,239.129 35.500 C 239.291 35.500,239.704 35.270,240.045 34.988 L 240.667 34.476 240.667 34.988 L 240.667 35.500 242.500 35.500 L 244.333 35.500 244.333 27.833 L 244.333 20.167 242.511 20.167 L 240.689 20.167 240.636 25.125 C 240.577 30.708,240.656 30.344,239.186 31.786 L 238.289 32.667 237.061 32.667 C 236.386 32.667,235.833 32.610,235.833 32.541 C 235.833 32.471,235.603 32.313,235.321 32.188 C 235.039 32.063,234.763 31.838,234.708 31.689 C 234.653 31.539,234.565 31.379,234.512 31.333 C 234.052 30.931,234.000 30.328,234.000 25.336 L 234.000 20.167 232.250 20.167 L 230.500 20.167 230.500 26.250 M340.904 20.389 C 340.631 21.102,341.037 32.251,341.348 32.575 C 341.432 32.662,341.500 32.868,341.500 33.033 C 341.500 33.198,341.575 33.333,341.667 33.333 C 341.758 33.333,341.834 33.427,341.834 33.542 C 341.834 33.805,342.704 34.833,342.927 34.833 C 343.018 34.833,343.201 34.983,343.333 35.167 C 343.465 35.350,343.707 35.500,343.870 35.500 C 344.033 35.500,344.167 35.575,344.167 35.667 C 344.167 35.758,344.387 35.833,344.657 35.833 C 344.926 35.833,345.193 35.908,345.250 36.000 C 345.307 36.092,346.054 36.167,346.917 36.167 C 347.779 36.167,348.527 36.092,348.583 36.000 C 348.640 35.908,348.869 35.833,349.093 35.833 C 349.317 35.833,349.500 35.758,349.500 35.667 C 349.500 35.575,349.650 35.500,349.833 35.500 C 350.017 35.500,350.167 35.425,350.167 35.333 C 350.167 35.242,350.300 35.167,350.463 35.167 C 350.626 35.167,350.868 35.017,351.000 34.833 C 351.338 34.364,351.500 34.418,351.500 35.000 L 351.500 35.500 353.250 35.500 L 355.000 35.500 355.000 27.828 L 355.000 20.155 353.208 20.203 L 351.417 20.250 351.321 25.083 C 351.227 29.813,351.216 29.931,350.821 30.606 C 350.197 31.671,349.612 32.330,349.292 32.332 C 349.131 32.333,349.000 32.408,349.000 32.500 C 349.000 32.851,346.431 32.700,346.167 32.333 C 346.035 32.150,345.793 32.000,345.630 32.000 C 345.451 32.000,345.333 31.876,345.333 31.687 C 345.333 31.515,345.221 31.281,345.083 31.167 C 344.871 30.991,344.833 30.196,344.831 25.938 C 344.828 19.545,345.046 20.167,342.809 20.167 C 341.446 20.167,340.968 20.222,340.904 20.389 M91.000 23.167 C 91.000 23.258,91.150 23.333,91.333 23.333 C 91.517 23.333,91.667 23.408,91.667 23.500 C 91.667 23.592,91.783 23.667,91.924 23.667 C 92.277 23.667,92.858 24.290,93.206 25.042 L 93.495 25.667 89.789 25.654 C 87.751 25.646,86.177 25.603,86.292 25.556 C 86.406 25.510,86.500 25.361,86.500 25.224 C 86.500 25.088,86.594 24.881,86.708 24.766 C 86.823 24.650,87.066 24.355,87.248 24.111 C 87.430 23.867,87.674 23.667,87.790 23.667 C 87.905 23.667,88.000 23.592,88.000 23.500 C 88.000 23.408,88.150 23.333,88.333 23.333 C 88.517 23.333,88.667 23.258,88.667 23.167 C 88.667 23.071,89.167 23.000,89.833 23.000 C 90.500 23.000,91.000 23.071,91.000 23.167 M121.667 23.126 C 121.667 23.195,121.909 23.359,122.205 23.490 C 122.798 23.753,123.500 24.386,123.500 24.659 C 123.500 24.755,123.575 24.833,123.667 24.833 C 123.758 24.833,123.833 24.977,123.833 25.153 C 123.833 25.328,123.927 25.510,124.042 25.556 C 124.156 25.603,122.525 25.645,120.417 25.651 C 118.308 25.657,116.658 25.606,116.750 25.539 C 116.842 25.472,117.024 25.210,117.153 24.958 C 117.283 24.706,117.452 24.500,117.528 24.500 C 117.604 24.500,117.667 24.394,117.667 24.264 C 117.667 24.134,117.892 23.928,118.167 23.807 C 118.442 23.685,118.667 23.529,118.667 23.459 C 118.667 23.390,118.817 23.333,119.000 23.333 C 119.183 23.333,119.333 23.258,119.333 23.167 C 119.333 23.071,119.833 23.000,120.500 23.000 C 121.142 23.000,121.667 23.057,121.667 23.126 M144.083 23.167 C 144.140 23.258,144.332 23.333,144.510 23.333 C 144.688 23.333,144.833 23.408,144.833 23.500 C 144.833 23.592,144.931 23.667,145.051 23.667 C 145.250 23.667,145.970 24.354,146.477 25.029 C 147.139 25.910,147.682 29.167,147.167 29.167 C 147.075 29.167,147.000 29.392,147.000 29.667 C 147.000 29.942,146.925 30.167,146.833 30.167 C 146.742 30.167,146.665 30.260,146.664 30.375 C 146.659 30.692,145.069 32.333,144.766 32.333 C 144.620 32.333,144.500 32.408,144.500 32.500 C 144.500 32.599,143.889 32.667,143.000 32.667 C 142.111 32.667,141.500 32.599,141.500 32.500 C 141.500 32.408,141.382 32.333,141.238 32.333 C 141.094 32.333,140.881 32.240,140.766 32.125 C 140.650 32.010,140.355 31.768,140.111 31.585 C 139.867 31.403,139.667 31.194,139.667 31.120 C 139.667 31.046,139.517 30.825,139.333 30.628 C 139.150 30.431,139.000 30.139,139.000 29.978 C 139.000 29.818,138.925 29.640,138.833 29.583 C 138.740 29.526,138.667 28.748,138.667 27.823 C 138.667 26.830,138.733 26.167,138.833 26.167 C 138.925 26.167,139.000 26.017,139.000 25.833 C 139.000 25.650,139.075 25.500,139.167 25.500 C 139.258 25.500,139.333 25.406,139.333 25.292 C 139.333 24.974,140.592 23.667,140.897 23.667 C 141.046 23.667,141.167 23.592,141.167 23.500 C 141.167 23.408,141.317 23.333,141.500 23.333 C 141.683 23.333,141.833 23.258,141.833 23.167 C 141.833 23.073,142.302 23.000,142.907 23.000 C 143.497 23.000,144.027 23.075,144.083 23.167 M161.250 23.167 C 161.307 23.258,161.492 23.333,161.661 23.333 C 162.008 23.333,163.833 24.984,163.833 25.298 C 163.833 25.409,163.895 25.500,163.971 25.500 C 164.701 25.500,164.555 29.749,163.797 30.573 C 163.634 30.751,163.500 30.967,163.500 31.054 C 163.500 31.270,162.632 32.000,162.375 32.000 C 162.260 32.000,162.166 32.056,162.165 32.125 C 162.165 32.194,161.962 32.344,161.715 32.458 C 161.234 32.682,158.833 32.750,158.833 32.541 C 158.833 32.471,158.591 32.307,158.295 32.176 C 157.745 31.933,157.003 31.289,156.996 31.049 C 156.994 30.976,156.846 30.729,156.667 30.500 C 156.487 30.271,156.339 29.952,156.337 29.792 C 156.335 29.631,156.258 29.500,156.167 29.500 C 156.068 29.500,156.000 28.892,156.000 28.010 C 156.000 27.190,156.075 26.473,156.167 26.417 C 156.258 26.360,156.333 26.131,156.333 25.907 C 156.333 25.683,156.408 25.500,156.500 25.500 C 156.592 25.500,156.667 25.406,156.667 25.291 C 156.667 24.961,158.471 23.333,158.837 23.333 C 159.018 23.333,159.167 23.258,159.167 23.167 C 159.167 23.074,159.608 23.000,160.157 23.000 C 160.701 23.000,161.193 23.075,161.250 23.167 M178.000 23.167 C 178.000 23.258,178.150 23.333,178.333 23.333 C 178.517 23.333,178.667 23.408,178.667 23.500 C 178.667 23.592,178.760 23.666,178.875 23.666 C 179.163 23.664,180.167 24.850,180.167 25.193 C 180.167 25.346,180.260 25.510,180.375 25.556 C 180.490 25.603,178.916 25.646,176.878 25.654 L 173.172 25.667 173.450 25.083 C 173.603 24.762,173.790 24.500,173.864 24.500 C 173.939 24.500,174.000 24.394,174.000 24.264 C 174.000 24.134,174.225 23.928,174.500 23.807 C 174.775 23.685,175.000 23.529,175.000 23.459 C 175.000 23.390,175.150 23.333,175.333 23.333 C 175.517 23.333,175.667 23.258,175.667 23.167 C 175.667 23.071,176.167 23.000,176.833 23.000 C 177.500 23.000,178.000 23.071,178.000 23.167 M255.359 23.375 C 256.304 23.864,257.500 25.099,257.500 25.585 C 257.500 25.722,257.575 25.833,257.667 25.833 C 257.758 25.833,257.833 26.091,257.833 26.407 C 257.833 26.722,257.908 27.027,258.000 27.083 C 258.092 27.140,258.167 27.557,258.167 28.010 C 258.167 28.463,258.092 28.833,258.000 28.833 C 257.908 28.833,257.833 29.058,257.833 29.333 C 257.833 29.608,257.758 29.833,257.667 29.833 C 257.575 29.833,257.500 29.977,257.500 30.152 C 257.500 30.486,256.013 32.102,255.376 32.458 C 254.930 32.709,252.333 32.744,252.333 32.500 C 252.333 32.408,252.226 32.333,252.094 32.333 C 251.492 32.333,250.068 30.567,249.763 29.443 C 249.355 27.933,249.619 25.801,250.320 24.952 C 251.048 24.071,251.492 23.667,251.734 23.667 C 251.880 23.667,252.000 23.592,252.000 23.500 C 252.000 23.408,252.150 23.333,252.333 23.333 C 252.517 23.333,252.667 23.258,252.667 23.167 C 252.667 22.832,254.599 22.981,255.359 23.375 M272.215 23.208 C 272.462 23.323,272.665 23.473,272.665 23.542 C 272.666 23.610,272.783 23.667,272.924 23.667 C 273.333 23.667,274.500 25.020,274.500 25.494 C 274.500 25.608,273.302 25.667,271.000 25.667 C 267.710 25.667,267.500 25.648,267.500 25.359 C 267.500 24.980,269.050 23.333,269.407 23.333 C 269.550 23.333,269.667 23.258,269.667 23.167 C 269.667 22.927,271.681 22.960,272.215 23.208 M366.818 23.345 C 367.797 23.818,368.866 24.931,369.212 25.839 C 369.750 27.251,369.480 30.333,368.792 30.639 C 368.723 30.669,368.667 30.771,368.667 30.864 C 368.667 31.012,368.287 31.399,367.427 32.125 C 367.292 32.240,367.065 32.333,366.924 32.333 C 366.782 32.333,366.667 32.408,366.667 32.500 C 366.667 32.833,364.125 32.692,363.667 32.333 C 363.438 32.154,363.190 32.006,363.117 32.004 C 362.963 31.999,362.167 31.229,362.167 31.084 C 362.167 31.030,362.017 30.825,361.833 30.628 C 361.650 30.431,361.500 30.139,361.500 29.978 C 361.500 29.818,361.425 29.640,361.333 29.583 C 361.240 29.526,361.167 28.748,361.167 27.823 C 361.167 26.830,361.233 26.167,361.333 26.167 C 361.425 26.167,361.500 26.017,361.500 25.833 C 361.500 25.650,361.575 25.500,361.667 25.500 C 361.758 25.500,361.833 25.402,361.833 25.281 C 361.833 24.854,363.521 23.333,363.996 23.333 C 364.181 23.333,364.333 23.258,364.333 23.167 C 364.333 22.859,366.069 22.983,366.818 23.345 M66.750 48.908 C 66.383 49.017,65.896 49.186,65.667 49.284 C 65.140 49.510,64.000 50.735,64.000 51.076 C 64.000 51.218,63.925 51.333,63.833 51.333 C 63.742 51.333,63.667 51.558,63.667 51.833 C 63.667 52.108,63.592 52.333,63.500 52.333 C 63.408 52.333,63.333 52.596,63.333 52.917 C 63.333 53.237,63.408 53.500,63.500 53.500 C 63.592 53.500,63.667 53.764,63.667 54.086 C 63.667 55.043,64.664 56.456,65.682 56.941 C 66.511 57.337,67.274 57.630,68.042 57.848 C 68.477 57.972,68.833 58.131,68.833 58.203 C 68.833 58.275,68.971 58.333,69.140 58.333 C 69.687 58.333,71.000 59.730,71.000 60.311 C 71.000 60.846,70.118 62.000,69.709 62.000 C 69.594 62.000,69.500 62.075,69.500 62.167 C 69.500 62.258,69.087 62.333,68.583 62.333 C 68.079 62.333,67.667 62.258,67.667 62.167 C 67.667 62.075,67.583 62.000,67.482 62.000 C 67.202 62.000,65.833 60.553,65.833 60.258 C 65.833 60.116,65.758 60.000,65.667 60.000 C 65.575 60.000,65.500 59.850,65.500 59.667 C 65.500 59.422,65.389 59.333,65.083 59.333 C 64.854 59.333,64.667 59.395,64.667 59.470 C 64.667 59.545,64.292 59.709,63.833 59.833 C 63.000 60.060,62.581 61.055,63.167 61.417 C 63.258 61.473,63.333 61.665,63.333 61.843 C 63.333 62.021,63.408 62.167,63.500 62.167 C 63.592 62.167,63.667 62.267,63.667 62.390 C 63.667 62.664,65.062 64.167,65.317 64.167 C 65.418 64.167,65.500 64.242,65.500 64.333 C 65.500 64.425,65.635 64.500,65.800 64.500 C 65.965 64.500,66.181 64.581,66.280 64.680 C 66.523 64.923,70.554 64.920,70.635 64.678 C 70.668 64.580,70.869 64.500,71.082 64.500 C 71.517 64.500,73.333 62.863,73.333 62.472 C 73.333 62.341,73.427 62.139,73.542 62.025 C 74.019 61.546,73.651 57.833,73.126 57.833 C 73.057 57.833,73.000 57.725,73.000 57.592 C 73.000 57.459,72.719 57.140,72.375 56.883 C 72.031 56.627,71.725 56.360,71.694 56.292 C 71.664 56.223,71.495 56.167,71.319 56.167 C 71.144 56.167,71.000 56.092,71.000 56.000 C 71.000 55.908,70.850 55.833,70.667 55.833 C 70.483 55.833,70.333 55.758,70.333 55.667 C 70.333 55.575,70.188 55.500,70.010 55.500 C 69.832 55.500,69.640 55.425,69.583 55.333 C 69.527 55.242,69.297 55.167,69.073 55.167 C 68.850 55.167,68.667 55.092,68.667 55.000 C 68.667 54.908,68.479 54.833,68.250 54.833 C 68.021 54.833,67.833 54.758,67.833 54.667 C 67.833 54.575,67.713 54.500,67.567 54.500 C 67.218 54.500,66.167 53.445,66.167 53.094 C 66.167 52.724,67.249 51.667,67.628 51.667 C 67.796 51.667,68.022 51.578,68.130 51.470 C 68.281 51.319,68.424 51.319,68.747 51.470 C 68.978 51.578,69.366 51.760,69.609 51.875 C 69.852 51.990,70.209 52.326,70.401 52.623 C 70.986 53.527,73.333 53.106,73.333 52.097 C 73.333 51.307,72.136 49.687,71.542 49.672 C 71.427 49.669,71.333 49.592,71.333 49.500 C 71.333 49.408,71.183 49.333,71.000 49.333 C 70.817 49.333,70.667 49.275,70.667 49.205 C 70.667 48.799,67.838 48.585,66.750 48.908 M94.236 48.915 C 92.581 49.437,91.333 50.512,91.333 51.414 C 91.333 51.553,91.258 51.667,91.167 51.667 C 91.067 51.667,91.000 52.306,91.000 53.250 C 91.000 54.194,91.067 54.833,91.167 54.833 C 91.258 54.833,91.333 54.948,91.333 55.088 C 91.333 55.761,93.520 57.364,94.754 57.595 C 95.075 57.655,95.378 57.771,95.428 57.852 C 95.479 57.934,95.740 58.000,96.010 58.000 C 96.279 58.000,96.500 58.075,96.500 58.167 C 96.500 58.258,96.621 58.333,96.769 58.333 C 97.327 58.333,98.333 59.650,98.333 60.380 C 98.333 61.449,97.312 62.333,96.076 62.333 C 95.576 62.333,95.167 62.258,95.167 62.167 C 95.167 62.075,95.052 62.000,94.911 62.000 C 94.474 62.000,93.167 60.494,93.167 59.990 C 93.167 59.694,92.715 59.333,92.345 59.333 C 92.155 59.333,92.000 59.408,92.000 59.500 C 92.000 59.592,91.850 59.667,91.667 59.667 C 91.483 59.667,91.333 59.737,91.333 59.822 C 91.333 59.908,91.127 60.002,90.875 60.031 C 90.090 60.121,90.382 61.765,91.344 62.667 C 91.491 62.804,91.745 63.123,91.908 63.375 C 92.071 63.627,92.292 63.833,92.399 63.833 C 92.506 63.833,92.701 63.983,92.833 64.167 C 92.965 64.350,93.192 64.500,93.337 64.500 C 93.482 64.500,93.681 64.581,93.780 64.680 C 94.020 64.920,97.982 64.918,98.222 64.678 C 98.320 64.580,98.535 64.500,98.700 64.500 C 98.865 64.500,99.000 64.425,99.000 64.333 C 99.000 64.242,99.112 64.167,99.250 64.167 C 99.388 64.167,99.500 64.092,99.500 64.000 C 99.500 63.908,99.595 63.833,99.711 63.833 C 99.827 63.833,100.107 63.533,100.333 63.167 C 100.560 62.800,100.803 62.500,100.873 62.500 C 100.943 62.500,101.000 62.317,101.000 62.093 C 101.000 61.869,101.075 61.640,101.167 61.583 C 101.258 61.527,101.333 61.002,101.333 60.417 C 101.333 59.832,101.258 59.307,101.167 59.250 C 101.075 59.193,101.000 58.926,101.000 58.657 C 101.000 58.387,100.925 58.167,100.833 58.167 C 100.742 58.167,100.667 58.069,100.667 57.949 C 100.667 57.396,98.624 55.833,97.901 55.833 C 97.772 55.833,97.667 55.758,97.667 55.667 C 97.667 55.575,97.517 55.500,97.333 55.500 C 97.150 55.500,97.000 55.425,97.000 55.333 C 97.000 55.242,96.813 55.167,96.583 55.167 C 96.354 55.167,96.167 55.092,96.167 55.000 C 96.167 54.908,96.068 54.833,95.948 54.833 C 95.356 54.833,93.833 53.882,93.833 53.512 C 93.833 53.414,93.743 53.333,93.633 53.333 C 93.478 53.333,93.478 53.289,93.633 53.133 C 93.743 53.023,93.833 52.830,93.833 52.705 C 93.833 52.416,94.123 52.141,94.708 51.875 C 94.960 51.760,95.366 51.573,95.611 51.458 C 95.966 51.292,96.069 51.292,96.124 51.458 C 96.163 51.573,96.383 51.667,96.614 51.667 C 97.060 51.667,98.000 52.526,98.000 52.934 C 98.000 53.281,99.275 53.224,100.125 52.838 C 100.914 52.480,100.974 52.268,100.548 51.359 C 99.615 49.370,96.551 48.183,94.236 48.915 M108.417 48.855 C 107.958 48.939,107.433 49.074,107.250 49.156 C 107.067 49.238,106.673 49.405,106.375 49.527 C 106.077 49.648,105.833 49.805,105.833 49.874 C 105.833 49.943,105.715 50.000,105.571 50.000 C 105.251 50.000,103.167 52.112,103.167 52.436 C 103.167 52.563,103.106 52.667,103.033 52.667 C 102.860 52.667,102.331 54.138,102.333 54.615 C 102.333 54.816,102.258 55.027,102.167 55.083 C 102.073 55.141,102.000 55.946,102.000 56.927 C 102.000 57.976,102.066 58.667,102.167 58.667 C 102.258 58.667,102.334 58.910,102.335 59.208 C 102.337 59.791,102.935 61.214,103.440 61.834 C 103.980 62.499,105.034 63.500,105.194 63.500 C 105.278 63.500,105.508 63.650,105.705 63.833 C 105.902 64.017,106.161 64.167,106.281 64.167 C 106.402 64.167,106.500 64.242,106.500 64.333 C 106.500 64.425,106.710 64.500,106.967 64.500 C 107.223 64.500,107.512 64.579,107.609 64.676 C 107.846 64.913,112.391 64.911,112.470 64.674 C 112.502 64.578,112.747 64.500,113.014 64.500 C 113.281 64.500,113.500 64.425,113.500 64.333 C 113.500 64.242,113.650 64.167,113.833 64.167 C 114.017 64.167,114.167 64.092,114.167 64.000 C 114.167 63.908,114.286 63.833,114.433 63.833 C 114.746 63.833,116.667 61.873,116.667 61.553 C 116.667 61.432,116.742 61.333,116.833 61.333 C 116.925 61.333,117.000 61.183,117.000 61.000 C 117.000 60.817,117.075 60.667,117.167 60.667 C 117.258 60.667,117.333 60.367,117.333 60.000 C 117.333 59.633,117.411 59.333,117.506 59.333 C 117.617 59.333,117.661 58.722,117.631 57.625 L 117.583 55.917 113.625 55.872 L 109.667 55.827 109.667 57.080 L 109.667 58.333 112.250 58.333 L 114.833 58.333 114.833 58.740 C 114.833 58.964,114.758 59.193,114.667 59.250 C 114.575 59.307,114.500 59.466,114.500 59.604 C 114.500 59.898,112.807 61.667,112.525 61.667 C 112.420 61.667,112.333 61.742,112.333 61.833 C 112.333 61.925,112.183 62.000,112.000 62.000 C 111.817 62.000,111.667 62.075,111.667 62.167 C 111.667 62.265,111.056 62.333,110.167 62.333 C 109.278 62.333,108.667 62.265,108.667 62.167 C 108.667 62.075,108.509 62.000,108.317 62.000 C 107.605 62.000,105.867 60.427,105.405 59.364 C 105.259 59.026,105.070 58.620,104.986 58.461 C 104.780 58.069,104.791 55.546,105.000 55.417 C 105.092 55.360,105.167 55.131,105.167 54.907 C 105.167 54.683,105.242 54.500,105.333 54.500 C 105.425 54.500,105.500 54.383,105.500 54.241 C 105.500 53.533,107.966 51.667,108.900 51.667 C 109.128 51.667,109.360 51.592,109.417 51.500 C 109.473 51.408,109.736 51.333,110.000 51.333 C 110.264 51.333,110.527 51.408,110.583 51.500 C 110.640 51.592,110.982 51.667,111.343 51.667 C 111.704 51.667,112.000 51.742,112.000 51.833 C 112.000 51.925,112.099 52.000,112.220 52.000 C 112.341 52.000,112.747 52.262,113.121 52.583 C 113.987 53.324,114.254 53.315,115.125 52.519 C 116.028 51.694,115.997 50.333,115.074 50.333 C 115.026 50.333,114.825 50.183,114.628 50.000 C 114.431 49.817,114.172 49.667,114.052 49.667 C 113.932 49.667,113.833 49.592,113.833 49.500 C 113.833 49.408,113.661 49.333,113.450 49.333 C 113.239 49.333,112.995 49.270,112.908 49.194 C 112.437 48.778,109.897 48.586,108.417 48.855 M122.042 48.890 C 121.652 48.986,121.333 49.125,121.333 49.199 C 121.333 49.273,121.213 49.333,121.065 49.333 C 120.620 49.333,119.060 51.046,118.926 51.682 C 118.690 52.799,118.631 54.167,118.819 54.167 C 118.918 54.167,119.000 54.392,119.000 54.667 C 119.000 54.942,119.075 55.167,119.167 55.167 C 119.258 55.167,119.333 55.260,119.334 55.375 C 119.334 55.656,120.073 56.500,120.318 56.500 C 120.426 56.500,120.664 56.640,120.848 56.811 C 121.032 56.982,121.835 57.338,122.633 57.600 C 123.431 57.863,124.108 58.135,124.139 58.206 C 124.169 58.276,124.338 58.333,124.514 58.333 C 124.690 58.333,124.833 58.408,124.833 58.500 C 124.833 58.592,124.949 58.667,125.091 58.667 C 125.657 58.667,126.231 59.506,126.231 60.333 C 126.231 61.161,125.657 62.000,125.091 62.000 C 124.949 62.000,124.833 62.075,124.833 62.167 C 124.833 62.508,122.927 62.361,122.667 62.000 C 122.535 61.817,122.312 61.666,122.172 61.665 C 121.923 61.664,121.831 61.522,121.113 60.042 C 120.791 59.377,120.000 58.992,120.000 59.500 C 120.000 59.592,119.817 59.667,119.593 59.667 C 119.369 59.667,119.140 59.742,119.083 59.833 C 119.027 59.925,118.835 60.000,118.657 60.000 C 118.339 60.000,118.261 60.215,118.326 60.917 C 118.367 61.367,118.718 62.167,118.874 62.167 C 118.943 62.167,119.000 62.281,119.000 62.421 C 119.000 62.752,120.415 64.167,120.746 64.167 C 120.886 64.167,121.000 64.242,121.000 64.333 C 121.000 64.425,121.144 64.500,121.319 64.500 C 121.495 64.500,121.665 64.579,121.698 64.676 C 121.777 64.916,125.889 64.916,125.969 64.676 C 126.001 64.579,126.135 64.500,126.266 64.500 C 126.821 64.500,128.667 62.909,128.667 62.431 C 128.667 62.296,128.742 62.140,128.833 62.083 C 129.079 61.932,129.044 58.740,128.792 58.292 C 128.461 57.704,126.866 56.167,126.587 56.167 C 126.447 56.167,126.333 56.092,126.333 56.000 C 126.333 55.908,126.183 55.833,126.000 55.833 C 125.817 55.833,125.667 55.758,125.667 55.667 C 125.667 55.575,125.479 55.500,125.250 55.500 C 125.021 55.500,124.833 55.425,124.833 55.333 C 124.833 55.242,124.650 55.167,124.427 55.167 C 124.203 55.167,123.973 55.092,123.917 55.000 C 123.860 54.908,123.668 54.833,123.490 54.833 C 123.312 54.833,123.167 54.758,123.167 54.667 C 123.167 54.575,123.051 54.500,122.910 54.500 C 122.448 54.500,121.500 53.571,121.500 53.119 C 121.500 52.707,122.539 51.667,122.950 51.667 C 123.124 51.667,123.338 51.596,123.425 51.511 C 123.721 51.219,124.891 51.727,125.609 52.458 C 126.373 53.238,126.894 53.350,127.727 52.916 C 127.990 52.779,128.309 52.667,128.436 52.667 C 128.566 52.667,128.667 52.499,128.667 52.283 C 128.667 51.844,128.311 51.003,128.125 51.001 C 128.056 51.001,128.000 50.865,128.000 50.700 C 128.000 50.530,127.713 50.223,127.338 49.992 C 126.974 49.767,126.674 49.527,126.671 49.458 C 126.669 49.390,126.517 49.333,126.333 49.333 C 126.150 49.333,126.000 49.275,126.000 49.205 C 126.000 48.810,123.257 48.592,122.042 48.890 M75.375 49.110 C 75.213 49.176,75.167 50.882,75.167 56.854 L 75.167 64.513 76.625 64.465 L 78.083 64.417 78.127 57.034 C 78.156 52.134,78.112 49.542,77.996 49.326 C 77.825 49.007,76.003 48.857,75.375 49.110 M80.207 49.331 C 80.050 49.582,80.000 51.465,80.000 57.081 L 80.000 64.500 84.833 64.500 L 89.667 64.500 89.667 63.250 L 89.667 62.000 86.333 62.000 L 83.000 62.000 83.000 60.000 L 83.000 58.000 86.007 58.000 L 89.015 58.000 88.966 56.792 L 88.917 55.583 85.958 55.538 L 83.000 55.492 83.000 53.583 L 83.000 51.674 86.292 51.629 L 89.583 51.583 89.633 50.432 C 89.668 49.623,89.619 49.239,89.467 49.142 C 88.934 48.805,80.427 48.978,80.207 49.331 M129.444 49.111 C 129.383 49.172,129.333 49.772,129.333 50.444 L 129.333 51.667 131.417 51.667 L 133.500 51.667 133.500 58.083 L 133.500 64.500 134.717 64.500 C 136.457 64.500,136.333 65.006,136.333 57.889 L 136.333 51.677 138.292 51.630 L 140.250 51.583 140.302 50.676 C 140.330 50.176,140.310 49.595,140.257 49.384 L 140.160 49.000 134.858 49.000 C 131.942 49.000,129.506 49.050,129.444 49.111 " stroke="none" fill="#040404" fill-rule="evenodd"></path></g></svg>